# MagicaVoxel @ Ephtracy

# group
o 

# material
mtllib others2-12.mtl
usemtl palette

# normals
vn -1 0 0
vn 1 0 0
vn 0 0 1
vn 0 0 -1
vn 0 -1 0
vn 0 1 0

# texcoords
vt 0.201172 0.5
vt 0.966797 0.5

# verts
v 10.7 1.4 -0.1
v 10.7 1.4 -1
v 10.7 1.4 -1.1
v 10.7 1.4 -1.9
v 10.7 1.4 -2
v 10.7 1.4 -2.9
v 10.7 1.8 -0.1
v 10.7 1.8 -1
v 10.7 1.8 -1.1
v 10.7 1.8 -1.9
v 10.7 1.8 -2
v 10.7 1.8 -2.9
v 10.9 -0.6 -0.5
v 10.9 -0.6 -2.5
v 10.9 1.4 -0.5
v 10.9 1.4 -1
v 10.9 1.4 -1.1
v 10.9 1.4 -1.9
v 10.9 1.4 -2
v 10.9 1.4 -2.5
v 15.9 -0.6 -0.5
v 15.9 -0.6 -2.5
v 15.9 1 -0.5
v 15.9 1 -2.5
v 11.3 -0.6 -0.5
v 11.3 -0.6 -2.5
v 11.3 1 -0.5
v 11.3 1 -2.5
v 16.3 -0.6 -0.5
v 16.3 -0.6 -2.5
v 16.3 1.4 -0.5
v 16.3 1.4 -1
v 16.3 1.4 -1.1
v 16.3 1.4 -1.9
v 16.3 1.4 -2
v 16.3 1.4 -2.5
v 16.5 1.4 -0.1
v 16.5 1.4 -1
v 16.5 1.4 -1.1
v 16.5 1.4 -1.9
v 16.5 1.4 -2
v 16.5 1.4 -2.9
v 16.5 1.8 -0.1
v 16.5 1.8 -1
v 16.5 1.8 -1.1
v 16.5 1.8 -1.9
v 16.5 1.8 -2
v 16.5 1.8 -2.9
v 10.7 1.4 -0.1
v 10.7 1.8 -0.1
v 16.5 1.4 -0.1
v 16.5 1.8 -0.1
v 10.9 -0.6 -0.5
v 10.9 1.4 -0.5
v 11.3 -0.6 -0.5
v 11.3 1 -0.5
v 15.9 -0.6 -0.5
v 15.9 1 -0.5
v 16.3 -0.6 -0.5
v 16.3 1.4 -0.5
v 10.7 1.4 -1.1
v 10.7 1.8 -1.1
v 10.9 1.4 -1.1
v 16.3 1.4 -1.1
v 16.5 1.4 -1.1
v 16.5 1.8 -1.1
v 10.7 1.4 -2
v 10.7 1.8 -2
v 10.9 1.4 -2
v 16.3 1.4 -2
v 16.5 1.4 -2
v 16.5 1.8 -2
v 10.7 1.4 -1
v 10.7 1.8 -1
v 10.9 1.4 -1
v 16.3 1.4 -1
v 16.5 1.4 -1
v 16.5 1.8 -1
v 10.7 1.4 -1.9
v 10.7 1.8 -1.9
v 10.9 1.4 -1.9
v 16.3 1.4 -1.9
v 16.5 1.4 -1.9
v 16.5 1.8 -1.9
v 10.9 -0.6 -2.5
v 10.9 1.4 -2.5
v 11.3 -0.6 -2.5
v 11.3 1 -2.5
v 15.9 -0.6 -2.5
v 15.9 1 -2.5
v 16.3 -0.6 -2.5
v 16.3 1.4 -2.5
v 10.7 1.4 -2.9
v 10.7 1.8 -2.9
v 16.5 1.4 -2.9
v 16.5 1.8 -2.9
v 10.9 -0.6 -0.5
v 11.3 -0.6 -0.5
v 15.9 -0.6 -0.5
v 16.3 -0.6 -0.5
v 10.9 -0.6 -2.5
v 11.3 -0.6 -2.5
v 15.9 -0.6 -2.5
v 16.3 -0.6 -2.5
v 11.3 1 -0.5
v 15.9 1 -0.5
v 11.3 1 -2.5
v 15.9 1 -2.5
v 10.7 1.4 -0.1
v 16.5 1.4 -0.1
v 10.9 1.4 -0.5
v 16.3 1.4 -0.5
v 10.7 1.4 -1
v 10.9 1.4 -1
v 16.3 1.4 -1
v 16.5 1.4 -1
v 10.7 1.4 -1.1
v 10.9 1.4 -1.1
v 16.3 1.4 -1.1
v 16.5 1.4 -1.1
v 10.7 1.4 -1.9
v 10.9 1.4 -1.9
v 16.3 1.4 -1.9
v 16.5 1.4 -1.9
v 10.7 1.4 -2
v 10.9 1.4 -2
v 16.3 1.4 -2
v 16.5 1.4 -2
v 10.9 1.4 -2.5
v 16.3 1.4 -2.5
v 10.7 1.4 -2.9
v 16.5 1.4 -2.9
v 10.9 1.4 -1
v 16.3 1.4 -1
v 10.9 1.4 -1.1
v 16.3 1.4 -1.1
v 10.9 1.4 -1.9
v 16.3 1.4 -1.9
v 10.9 1.4 -2
v 16.3 1.4 -2
v 10.7 1.8 -0.1
v 16.5 1.8 -0.1
v 10.7 1.8 -1
v 16.5 1.8 -1
v 10.7 1.8 -1.1
v 16.5 1.8 -1.1
v 10.7 1.8 -1.9
v 16.5 1.8 -1.9
v 10.7 1.8 -2
v 16.5 1.8 -2
v 10.7 1.8 -2.9
v 16.5 1.8 -2.9

# faces
f 7/1/1 2/1/1 1/1/1
f 8/1/1 2/1/1 7/1/1
f 9/1/1 4/1/1 3/1/1
f 10/1/1 4/1/1 9/1/1
f 11/1/1 6/1/1 5/1/1
f 12/1/1 6/1/1 11/1/1
f 15/2/1 14/2/1 13/2/1
f 16/2/1 14/2/1 15/2/1
f 17/2/1 14/2/1 16/2/1
f 18/2/1 14/2/1 17/2/1
f 19/2/1 14/2/1 18/2/1
f 20/2/1 14/2/1 19/2/1
f 23/2/1 22/2/1 21/2/1
f 24/2/1 22/2/1 23/2/1
f 25/2/2 26/2/2 27/2/2
f 27/2/2 26/2/2 28/2/2
f 29/2/2 30/2/2 31/2/2
f 31/2/2 30/2/2 32/2/2
f 32/2/2 30/2/2 33/2/2
f 33/2/2 30/2/2 34/2/2
f 34/2/2 30/2/2 35/2/2
f 35/2/2 30/2/2 36/2/2
f 37/1/2 38/1/2 43/1/2
f 43/1/2 38/1/2 44/1/2
f 39/1/2 40/1/2 45/1/2
f 45/1/2 40/1/2 46/1/2
f 41/1/2 42/1/2 47/1/2
f 47/1/2 42/1/2 48/1/2
f 51/1/3 50/1/3 49/1/3
f 52/1/3 50/1/3 51/1/3
f 55/2/3 54/2/3 53/2/3
f 56/2/3 54/2/3 55/2/3
f 58/2/3 54/2/3 56/2/3
f 59/2/3 58/2/3 57/2/3
f 60/2/3 54/2/3 58/2/3
f 60/2/3 58/2/3 59/2/3
f 63/1/3 62/1/3 61/1/3
f 64/1/3 62/1/3 63/1/3
f 65/1/3 62/1/3 64/1/3
f 66/1/3 62/1/3 65/1/3
f 69/1/3 68/1/3 67/1/3
f 70/1/3 68/1/3 69/1/3
f 71/1/3 68/1/3 70/1/3
f 72/1/3 68/1/3 71/1/3
f 73/1/4 74/1/4 75/1/4
f 75/1/4 74/1/4 76/1/4
f 76/1/4 74/1/4 77/1/4
f 77/1/4 74/1/4 78/1/4
f 79/1/4 80/1/4 81/1/4
f 81/1/4 80/1/4 82/1/4
f 82/1/4 80/1/4 83/1/4
f 83/1/4 80/1/4 84/1/4
f 85/2/4 86/2/4 87/2/4
f 87/2/4 86/2/4 88/2/4
f 88/2/4 86/2/4 90/2/4
f 89/2/4 90/2/4 91/2/4
f 90/2/4 86/2/4 92/2/4
f 91/2/4 90/2/4 92/2/4
f 93/1/4 94/1/4 95/1/4
f 95/1/4 94/1/4 96/1/4
f 101/2/5 98/2/5 97/2/5
f 102/2/5 98/2/5 101/2/5
f 103/2/5 100/2/5 99/2/5
f 104/2/5 100/2/5 103/2/5
f 107/2/5 106/2/5 105/2/5
f 108/2/5 106/2/5 107/2/5
f 111/1/5 110/1/5 109/1/5
f 112/1/5 110/1/5 111/1/5
f 113/1/5 111/1/5 109/1/5
f 114/1/5 111/1/5 113/1/5
f 115/1/5 110/1/5 112/1/5
f 116/1/5 110/1/5 115/1/5
f 121/1/5 118/1/5 117/1/5
f 122/1/5 118/1/5 121/1/5
f 123/1/5 120/1/5 119/1/5
f 124/1/5 120/1/5 123/1/5
f 129/1/5 126/1/5 125/1/5
f 130/1/5 128/1/5 127/1/5
f 131/1/5 129/1/5 125/1/5
f 131/1/5 130/1/5 129/1/5
f 132/1/5 128/1/5 130/1/5
f 132/1/5 130/1/5 131/1/5
f 133/2/6 134/2/6 135/2/6
f 135/2/6 134/2/6 136/2/6
f 137/2/6 138/2/6 139/2/6
f 139/2/6 138/2/6 140/2/6
f 141/1/6 142/1/6 143/1/6
f 143/1/6 142/1/6 144/1/6
f 145/1/6 146/1/6 147/1/6
f 147/1/6 146/1/6 148/1/6
f 149/1/6 150/1/6 151/1/6
f 151/1/6 150/1/6 152/1/6
