# MagicaVoxel @ Ephtracy

# group
o 

# material
mtllib others2-10.mtl
usemtl palette

# normals
vn -1 0 0
vn 1 0 0
vn 0 0 1
vn 0 0 -1
vn 0 -1 0
vn 0 1 0

# texcoords
vt 0.201172 0.5
vt 0.990234 0.5

# verts
v 16.9 1.4 -0.1
v 16.9 1.4 -1
v 16.9 1.4 -1.1
v 16.9 1.4 -1.9
v 16.9 1.4 -2
v 16.9 1.4 -2.9
v 16.9 1.7 -0.1
v 16.9 1.7 -1
v 16.9 1.7 -1.1
v 16.9 1.7 -1.9
v 16.9 1.7 -2
v 16.9 1.7 -2.9
v 16.9 1.9 -3.1
v 16.9 1.9 -3.4
v 16.9 2.7 -3.1
v 16.9 2.7 -3.4
v 16.9 2.8 -3.1
v 16.9 2.8 -3.4
v 16.9 3.7 -3.1
v 16.9 3.7 -3.4
v 17.1 -0.6 -0.5
v 17.1 -0.6 -2.5
v 17.1 -0.2 -0.9
v 17.1 -0.2 -2.5
v 17.1 1 -0.9
v 17.1 1 -3.7
v 17.1 1.4 -0.5
v 17.1 1.4 -1
v 17.1 1.4 -1.1
v 17.1 1.4 -1.9
v 17.1 1.4 -2
v 17.1 1.4 -2.9
v 17.1 1.4 -3.4
v 17.1 1.9 -3.4
v 17.1 2.7 -3.4
v 17.1 2.8 -3.4
v 17.1 3.7 -3.4
v 17.1 3.7 -3.7
v 22.1 -0.6 -0.5
v 22.1 -0.6 -2.5
v 22.1 -0.2 -0.9
v 22.1 -0.2 -2.5
v 22.1 1 -0.9
v 22.1 1 -3.7
v 22.1 1.4 -0.5
v 22.1 1.4 -1
v 22.1 1.4 -1.1
v 22.1 1.4 -1.9
v 22.1 1.4 -2
v 22.1 1.4 -2.9
v 22.1 1.4 -3.4
v 22.1 1.9 -3.4
v 22.1 2.7 -3.4
v 22.1 2.8 -3.4
v 22.1 3.7 -3.4
v 22.1 3.7 -3.7
v 17.5 -0.6 -0.5
v 17.5 -0.6 -2.5
v 17.5 -0.2 -0.9
v 17.5 -0.2 -2.5
v 17.5 1 -0.9
v 17.5 1 -3.7
v 17.5 1.4 -0.5
v 17.5 1.4 -1
v 17.5 1.4 -1.1
v 17.5 1.4 -1.9
v 17.5 1.4 -2
v 17.5 1.4 -2.9
v 17.5 1.4 -3.4
v 17.5 1.9 -3.4
v 17.5 2.7 -3.4
v 17.5 2.8 -3.4
v 17.5 3.7 -3.4
v 17.5 3.7 -3.7
v 22.5 -0.6 -0.5
v 22.5 -0.6 -2.5
v 22.5 -0.2 -0.9
v 22.5 -0.2 -2.5
v 22.5 1 -0.9
v 22.5 1 -3.7
v 22.5 1.4 -0.5
v 22.5 1.4 -1
v 22.5 1.4 -1.1
v 22.5 1.4 -1.9
v 22.5 1.4 -2
v 22.5 1.4 -2.9
v 22.5 1.4 -3.4
v 22.5 1.9 -3.4
v 22.5 2.7 -3.4
v 22.5 2.8 -3.4
v 22.5 3.7 -3.4
v 22.5 3.7 -3.7
v 22.7 1.4 -0.1
v 22.7 1.4 -1
v 22.7 1.4 -1.1
v 22.7 1.4 -1.9
v 22.7 1.4 -2
v 22.7 1.4 -2.9
v 22.7 1.7 -0.1
v 22.7 1.7 -1
v 22.7 1.7 -1.1
v 22.7 1.7 -1.9
v 22.7 1.7 -2
v 22.7 1.7 -2.9
v 22.7 1.9 -3.1
v 22.7 1.9 -3.4
v 22.7 2.7 -3.1
v 22.7 2.7 -3.4
v 22.7 2.8 -3.1
v 22.7 2.8 -3.4
v 22.7 3.7 -3.1
v 22.7 3.7 -3.4
v 16.9 1.4 -0.1
v 16.9 1.7 -0.1
v 22.7 1.4 -0.1
v 22.7 1.7 -0.1
v 17.1 -0.6 -0.5
v 17.1 1.4 -0.5
v 17.5 -0.6 -0.5
v 17.5 1.4 -0.5
v 22.1 -0.6 -0.5
v 22.1 1.4 -0.5
v 22.5 -0.6 -0.5
v 22.5 1.4 -0.5
v 16.9 1.4 -1.1
v 16.9 1.7 -1.1
v 17.1 1.4 -1.1
v 17.5 1.4 -1.1
v 22.1 1.4 -1.1
v 22.5 1.4 -1.1
v 22.7 1.4 -1.1
v 22.7 1.7 -1.1
v 16.9 1.4 -2
v 16.9 1.7 -2
v 17.1 1.4 -2
v 17.5 1.4 -2
v 22.1 1.4 -2
v 22.5 1.4 -2
v 22.7 1.4 -2
v 22.7 1.7 -2
v 16.9 1.9 -3.1
v 16.9 2.7 -3.1
v 16.9 2.8 -3.1
v 16.9 3.7 -3.1
v 22.7 1.9 -3.1
v 22.7 2.7 -3.1
v 22.7 2.8 -3.1
v 22.7 3.7 -3.1
v 17.1 1.4 -3.4
v 17.1 1.9 -3.4
v 17.1 2.7 -3.4
v 17.1 2.8 -3.4
v 17.5 1.4 -3.4
v 17.5 1.9 -3.4
v 17.5 2.7 -3.4
v 17.5 2.8 -3.4
v 22.1 1.4 -3.4
v 22.1 1.9 -3.4
v 22.1 2.7 -3.4
v 22.1 2.8 -3.4
v 22.5 1.4 -3.4
v 22.5 1.9 -3.4
v 22.5 2.7 -3.4
v 22.5 2.8 -3.4
v 17.1 -0.2 -0.9
v 17.1 1 -0.9
v 17.5 -0.2 -0.9
v 17.5 1 -0.9
v 22.1 -0.2 -0.9
v 22.1 1 -0.9
v 22.5 -0.2 -0.9
v 22.5 1 -0.9
v 16.9 1.4 -1
v 16.9 1.7 -1
v 17.1 1.4 -1
v 17.5 1.4 -1
v 22.1 1.4 -1
v 22.5 1.4 -1
v 22.7 1.4 -1
v 22.7 1.7 -1
v 16.9 1.4 -1.9
v 16.9 1.7 -1.9
v 17.1 1.4 -1.9
v 17.5 1.4 -1.9
v 22.1 1.4 -1.9
v 22.5 1.4 -1.9
v 22.7 1.4 -1.9
v 22.7 1.7 -1.9
v 17.1 -0.6 -2.5
v 17.1 -0.2 -2.5
v 17.5 -0.6 -2.5
v 17.5 -0.2 -2.5
v 22.1 -0.6 -2.5
v 22.1 -0.2 -2.5
v 22.5 -0.6 -2.5
v 22.5 -0.2 -2.5
v 16.9 1.4 -2.9
v 16.9 1.7 -2.9
v 17.1 1.4 -2.9
v 17.5 1.4 -2.9
v 22.1 1.4 -2.9
v 22.5 1.4 -2.9
v 22.7 1.4 -2.9
v 22.7 1.7 -2.9
v 16.9 1.9 -3.4
v 16.9 2.7 -3.4
v 16.9 2.8 -3.4
v 16.9 3.7 -3.4
v 17.1 1.9 -3.4
v 17.1 2.7 -3.4
v 17.1 2.8 -3.4
v 17.1 3.7 -3.4
v 17.5 1.9 -3.4
v 17.5 2.7 -3.4
v 17.5 2.8 -3.4
v 17.5 3.7 -3.4
v 22.1 1.9 -3.4
v 22.1 2.7 -3.4
v 22.1 2.8 -3.4
v 22.1 3.7 -3.4
v 22.5 1.9 -3.4
v 22.5 2.7 -3.4
v 22.5 2.8 -3.4
v 22.5 3.7 -3.4
v 22.7 1.9 -3.4
v 22.7 2.7 -3.4
v 22.7 2.8 -3.4
v 22.7 3.7 -3.4
v 17.1 1 -3.7
v 17.1 3.7 -3.7
v 17.5 1 -3.7
v 17.5 3.7 -3.7
v 22.1 1 -3.7
v 22.1 3.7 -3.7
v 22.5 1 -3.7
v 22.5 3.7 -3.7
v 17.1 -0.6 -0.5
v 17.5 -0.6 -0.5
v 22.1 -0.6 -0.5
v 22.5 -0.6 -0.5
v 17.1 -0.6 -2.5
v 17.5 -0.6 -2.5
v 22.1 -0.6 -2.5
v 22.5 -0.6 -2.5
v 17.1 1 -0.9
v 17.5 1 -0.9
v 22.1 1 -0.9
v 22.5 1 -0.9
v 17.1 1 -3.7
v 17.5 1 -3.7
v 22.1 1 -3.7
v 22.5 1 -3.7
v 16.9 1.4 -0.1
v 22.7 1.4 -0.1
v 17.1 1.4 -0.5
v 17.5 1.4 -0.5
v 22.1 1.4 -0.5
v 22.5 1.4 -0.5
v 16.9 1.4 -1
v 17.1 1.4 -1
v 17.5 1.4 -1
v 22.1 1.4 -1
v 22.5 1.4 -1
v 22.7 1.4 -1
v 16.9 1.4 -1.1
v 17.1 1.4 -1.1
v 17.5 1.4 -1.1
v 22.1 1.4 -1.1
v 22.5 1.4 -1.1
v 22.7 1.4 -1.1
v 16.9 1.4 -1.9
v 17.1 1.4 -1.9
v 17.5 1.4 -1.9
v 22.1 1.4 -1.9
v 22.5 1.4 -1.9
v 22.7 1.4 -1.9
v 16.9 1.4 -2
v 17.1 1.4 -2
v 17.5 1.4 -2
v 22.1 1.4 -2
v 22.5 1.4 -2
v 22.7 1.4 -2
v 16.9 1.4 -2.9
v 17.1 1.4 -2.9
v 17.5 1.4 -2.9
v 22.1 1.4 -2.9
v 22.5 1.4 -2.9
v 22.7 1.4 -2.9
v 16.9 1.9 -3.1
v 22.7 1.9 -3.1
v 16.9 1.9 -3.4
v 17.1 1.9 -3.4
v 17.5 1.9 -3.4
v 22.1 1.9 -3.4
v 22.5 1.9 -3.4
v 22.7 1.9 -3.4
v 16.9 2.8 -3.1
v 22.7 2.8 -3.1
v 16.9 2.8 -3.4
v 17.1 2.8 -3.4
v 17.5 2.8 -3.4
v 22.1 2.8 -3.4
v 22.5 2.8 -3.4
v 22.7 2.8 -3.4
v 17.1 -0.2 -0.9
v 17.5 -0.2 -0.9
v 22.1 -0.2 -0.9
v 22.5 -0.2 -0.9
v 17.1 -0.2 -2.5
v 17.5 -0.2 -2.5
v 22.1 -0.2 -2.5
v 22.5 -0.2 -2.5
v 17.1 1.4 -1
v 17.5 1.4 -1
v 22.1 1.4 -1
v 22.5 1.4 -1
v 17.1 1.4 -1.1
v 17.5 1.4 -1.1
v 22.1 1.4 -1.1
v 22.5 1.4 -1.1
v 17.1 1.4 -1.9
v 17.5 1.4 -1.9
v 22.1 1.4 -1.9
v 22.5 1.4 -1.9
v 17.1 1.4 -2
v 17.5 1.4 -2
v 22.1 1.4 -2
v 22.5 1.4 -2
v 17.1 1.4 -2.9
v 17.5 1.4 -2.9
v 22.1 1.4 -2.9
v 22.5 1.4 -2.9
v 17.1 1.4 -3.4
v 17.5 1.4 -3.4
v 22.1 1.4 -3.4
v 22.5 1.4 -3.4
v 16.9 1.7 -0.1
v 22.7 1.7 -0.1
v 16.9 1.7 -1
v 22.7 1.7 -1
v 16.9 1.7 -1.1
v 22.7 1.7 -1.1
v 16.9 1.7 -1.9
v 22.7 1.7 -1.9
v 16.9 1.7 -2
v 22.7 1.7 -2
v 16.9 1.7 -2.9
v 22.7 1.7 -2.9
v 16.9 2.7 -3.1
v 22.7 2.7 -3.1
v 16.9 2.7 -3.4
v 17.1 2.7 -3.4
v 17.5 2.7 -3.4
v 22.1 2.7 -3.4
v 22.5 2.7 -3.4
v 22.7 2.7 -3.4
v 16.9 3.7 -3.1
v 22.7 3.7 -3.1
v 16.9 3.7 -3.4
v 17.1 3.7 -3.4
v 17.5 3.7 -3.4
v 22.1 3.7 -3.4
v 22.5 3.7 -3.4
v 22.7 3.7 -3.4
v 17.1 3.7 -3.7
v 17.5 3.7 -3.7
v 22.1 3.7 -3.7
v 22.5 3.7 -3.7

# faces
f 7/1/1 2/1/1 1/1/1
f 8/1/1 2/1/1 7/1/1
f 9/1/1 4/1/1 3/1/1
f 10/1/1 4/1/1 9/1/1
f 11/1/1 6/1/1 5/1/1
f 12/1/1 6/1/1 11/1/1
f 15/1/1 14/1/1 13/1/1
f 16/1/1 14/1/1 15/1/1
f 19/1/1 18/1/1 17/1/1
f 20/1/1 18/1/1 19/1/1
f 23/2/1 22/2/1 21/2/1
f 24/2/1 22/2/1 23/2/1
f 25/2/1 23/2/1 21/2/1
f 27/2/1 25/2/1 21/2/1
f 27/2/1 26/2/1 25/2/1
f 28/2/1 26/2/1 27/2/1
f 29/2/1 26/2/1 28/2/1
f 30/2/1 26/2/1 29/2/1
f 31/2/1 26/2/1 30/2/1
f 32/2/1 26/2/1 31/2/1
f 33/2/1 26/2/1 32/2/1
f 34/2/1 26/2/1 33/2/1
f 35/2/1 26/2/1 34/2/1
f 36/2/1 26/2/1 35/2/1
f 37/2/1 26/2/1 36/2/1
f 38/2/1 26/2/1 37/2/1
f 41/2/1 40/2/1 39/2/1
f 42/2/1 40/2/1 41/2/1
f 43/2/1 41/2/1 39/2/1
f 45/2/1 43/2/1 39/2/1
f 45/2/1 44/2/1 43/2/1
f 46/2/1 44/2/1 45/2/1
f 47/2/1 44/2/1 46/2/1
f 48/2/1 44/2/1 47/2/1
f 49/2/1 44/2/1 48/2/1
f 50/2/1 44/2/1 49/2/1
f 51/2/1 44/2/1 50/2/1
f 52/2/1 44/2/1 51/2/1
f 53/2/1 44/2/1 52/2/1
f 54/2/1 44/2/1 53/2/1
f 55/2/1 44/2/1 54/2/1
f 56/2/1 44/2/1 55/2/1
f 57/2/2 58/2/2 59/2/2
f 59/2/2 58/2/2 60/2/2
f 57/2/2 59/2/2 61/2/2
f 57/2/2 61/2/2 63/2/2
f 61/2/2 62/2/2 63/2/2
f 63/2/2 62/2/2 64/2/2
f 64/2/2 62/2/2 65/2/2
f 65/2/2 62/2/2 66/2/2
f 66/2/2 62/2/2 67/2/2
f 67/2/2 62/2/2 68/2/2
f 68/2/2 62/2/2 69/2/2
f 69/2/2 62/2/2 70/2/2
f 70/2/2 62/2/2 71/2/2
f 71/2/2 62/2/2 72/2/2
f 72/2/2 62/2/2 73/2/2
f 73/2/2 62/2/2 74/2/2
f 75/2/2 76/2/2 77/2/2
f 77/2/2 76/2/2 78/2/2
f 75/2/2 77/2/2 79/2/2
f 75/2/2 79/2/2 81/2/2
f 79/2/2 80/2/2 81/2/2
f 81/2/2 80/2/2 82/2/2
f 82/2/2 80/2/2 83/2/2
f 83/2/2 80/2/2 84/2/2
f 84/2/2 80/2/2 85/2/2
f 85/2/2 80/2/2 86/2/2
f 86/2/2 80/2/2 87/2/2
f 87/2/2 80/2/2 88/2/2
f 88/2/2 80/2/2 89/2/2
f 89/2/2 80/2/2 90/2/2
f 90/2/2 80/2/2 91/2/2
f 91/2/2 80/2/2 92/2/2
f 93/1/2 94/1/2 99/1/2
f 99/1/2 94/1/2 100/1/2
f 95/1/2 96/1/2 101/1/2
f 101/1/2 96/1/2 102/1/2
f 97/1/2 98/1/2 103/1/2
f 103/1/2 98/1/2 104/1/2
f 105/1/2 106/1/2 107/1/2
f 107/1/2 106/1/2 108/1/2
f 109/1/2 110/1/2 111/1/2
f 111/1/2 110/1/2 112/1/2
f 115/1/3 114/1/3 113/1/3
f 116/1/3 114/1/3 115/1/3
f 119/2/3 118/2/3 117/2/3
f 120/2/3 118/2/3 119/2/3
f 123/2/3 122/2/3 121/2/3
f 124/2/3 122/2/3 123/2/3
f 127/1/3 126/1/3 125/1/3
f 128/1/3 126/1/3 127/1/3
f 129/1/3 126/1/3 128/1/3
f 130/1/3 126/1/3 129/1/3
f 131/1/3 126/1/3 130/1/3
f 132/1/3 126/1/3 131/1/3
f 135/1/3 134/1/3 133/1/3
f 136/1/3 134/1/3 135/1/3
f 137/1/3 134/1/3 136/1/3
f 138/1/3 134/1/3 137/1/3
f 139/1/3 134/1/3 138/1/3
f 140/1/3 134/1/3 139/1/3
f 145/1/3 142/1/3 141/1/3
f 146/1/3 142/1/3 145/1/3
f 147/1/3 144/1/3 143/1/3
f 148/1/3 144/1/3 147/1/3
f 153/2/3 150/2/3 149/2/3
f 154/2/3 150/2/3 153/2/3
f 155/2/3 152/2/3 151/2/3
f 156/2/3 152/2/3 155/2/3
f 161/2/3 158/2/3 157/2/3
f 162/2/3 158/2/3 161/2/3
f 163/2/3 160/2/3 159/2/3
f 164/2/3 160/2/3 163/2/3
f 165/2/4 166/2/4 167/2/4
f 167/2/4 166/2/4 168/2/4
f 169/2/4 170/2/4 171/2/4
f 171/2/4 170/2/4 172/2/4
f 173/1/4 174/1/4 175/1/4
f 175/1/4 174/1/4 176/1/4
f 176/1/4 174/1/4 177/1/4
f 177/1/4 174/1/4 178/1/4
f 178/1/4 174/1/4 179/1/4
f 179/1/4 174/1/4 180/1/4
f 181/1/4 182/1/4 183/1/4
f 183/1/4 182/1/4 184/1/4
f 184/1/4 182/1/4 185/1/4
f 185/1/4 182/1/4 186/1/4
f 186/1/4 182/1/4 187/1/4
f 187/1/4 182/1/4 188/1/4
f 189/2/4 190/2/4 191/2/4
f 191/2/4 190/2/4 192/2/4
f 193/2/4 194/2/4 195/2/4
f 195/2/4 194/2/4 196/2/4
f 197/1/4 198/1/4 199/1/4
f 199/1/4 198/1/4 200/1/4
f 200/1/4 198/1/4 201/1/4
f 201/1/4 198/1/4 202/1/4
f 202/1/4 198/1/4 203/1/4
f 203/1/4 198/1/4 204/1/4
f 205/1/4 206/1/4 209/1/4
f 209/1/4 206/1/4 210/1/4
f 207/1/4 208/1/4 211/1/4
f 211/1/4 208/1/4 212/1/4
f 213/1/4 214/1/4 217/1/4
f 217/1/4 214/1/4 218/1/4
f 215/1/4 216/1/4 219/1/4
f 219/1/4 216/1/4 220/1/4
f 221/1/4 222/1/4 225/1/4
f 225/1/4 222/1/4 226/1/4
f 223/1/4 224/1/4 227/1/4
f 227/1/4 224/1/4 228/1/4
f 229/2/4 230/2/4 231/2/4
f 231/2/4 230/2/4 232/2/4
f 233/2/4 234/2/4 235/2/4
f 235/2/4 234/2/4 236/2/4
f 241/2/5 238/2/5 237/2/5
f 242/2/5 238/2/5 241/2/5
f 243/2/5 240/2/5 239/2/5
f 244/2/5 240/2/5 243/2/5
f 249/2/5 246/2/5 245/2/5
f 250/2/5 246/2/5 249/2/5
f 251/2/5 248/2/5 247/2/5
f 252/2/5 248/2/5 251/2/5
f 255/1/5 254/1/5 253/1/5
f 256/1/5 254/1/5 255/1/5
f 257/1/5 254/1/5 256/1/5
f 258/1/5 254/1/5 257/1/5
f 259/1/5 255/1/5 253/1/5
f 260/1/5 255/1/5 259/1/5
f 261/1/5 257/1/5 256/1/5
f 262/1/5 257/1/5 261/1/5
f 263/1/5 254/1/5 258/1/5
f 264/1/5 254/1/5 263/1/5
f 271/1/5 266/1/5 265/1/5
f 272/1/5 266/1/5 271/1/5
f 273/1/5 268/1/5 267/1/5
f 274/1/5 268/1/5 273/1/5
f 275/1/5 270/1/5 269/1/5
f 276/1/5 270/1/5 275/1/5
f 283/1/5 278/1/5 277/1/5
f 284/1/5 278/1/5 283/1/5
f 285/1/5 280/1/5 279/1/5
f 286/1/5 280/1/5 285/1/5
f 287/1/5 282/1/5 281/1/5
f 288/1/5 282/1/5 287/1/5
f 291/1/5 290/1/5 289/1/5
f 292/1/5 290/1/5 291/1/5
f 293/1/5 290/1/5 292/1/5
f 294/1/5 290/1/5 293/1/5
f 295/1/5 290/1/5 294/1/5
f 296/1/5 290/1/5 295/1/5
f 299/1/5 298/1/5 297/1/5
f 300/1/5 298/1/5 299/1/5
f 301/1/5 298/1/5 300/1/5
f 302/1/5 298/1/5 301/1/5
f 303/1/5 298/1/5 302/1/5
f 304/1/5 298/1/5 303/1/5
f 305/2/6 306/2/6 309/2/6
f 309/2/6 306/2/6 310/2/6
f 307/2/6 308/2/6 311/2/6
f 311/2/6 308/2/6 312/2/6
f 313/2/6 314/2/6 317/2/6
f 317/2/6 314/2/6 318/2/6
f 315/2/6 316/2/6 319/2/6
f 319/2/6 316/2/6 320/2/6
f 321/2/6 322/2/6 325/2/6
f 325/2/6 322/2/6 326/2/6
f 323/2/6 324/2/6 327/2/6
f 327/2/6 324/2/6 328/2/6
f 329/2/6 330/2/6 333/2/6
f 333/2/6 330/2/6 334/2/6
f 331/2/6 332/2/6 335/2/6
f 335/2/6 332/2/6 336/2/6
f 337/1/6 338/1/6 339/1/6
f 339/1/6 338/1/6 340/1/6
f 341/1/6 342/1/6 343/1/6
f 343/1/6 342/1/6 344/1/6
f 345/1/6 346/1/6 347/1/6
f 347/1/6 346/1/6 348/1/6
f 349/1/6 350/1/6 351/1/6
f 351/1/6 350/1/6 352/1/6
f 352/1/6 350/1/6 353/1/6
f 353/1/6 350/1/6 354/1/6
f 354/1/6 350/1/6 355/1/6
f 355/1/6 350/1/6 356/1/6
f 357/1/6 358/1/6 359/1/6
f 359/1/6 358/1/6 360/1/6
f 360/1/6 358/1/6 361/1/6
f 361/1/6 358/1/6 362/1/6
f 362/1/6 358/1/6 363/1/6
f 363/1/6 358/1/6 364/1/6
f 360/2/6 361/2/6 365/2/6
f 365/2/6 361/2/6 366/2/6
f 362/2/6 363/2/6 367/2/6
f 367/2/6 363/2/6 368/2/6
