# MagicaVoxel @ Ephtracy

# group
o 

# material
mtllib pizza-0.mtl
usemtl palette

# normals
vn 0 1 0
vn 0 -1 0
vn 0 0 1
vn 0 0 -1
vn 1 0 0
vn -1 0 0

# texcoords
vt 0.0332031 0.5
vt 0.0449219 0.5
vt 0.0644531 0.5
vt 0.0917969 0.5
vt 0.369141 0.5
vt 0.849609 0.5
vt 0.900391 0.5
vt 0.958984 0.5

# verts
v 2.4 4.3 1.9
v 2.4 4.3 -1.9
v 1.9 4.3 1.9
v 1.9 4.3 -1.9
v 2.2 0.7 1.7
v 2.2 0.7 -1.7
v 2.1 0.7 1
v 2.1 0.7 0.8
v 2.1 0.7 -0.8
v 2.1 0.7 -1
v 1.9 0.7 1.7
v 1.9 0.7 1
v 1.9 0.7 0.8
v 1.9 0.7 -0.8
v 1.9 0.7 -1
v 1.9 0.7 -1.7
v 2.2 4.1 1.7
v 2.2 4.1 -1.7
v 1.9 4.1 1.7
v 1.9 4.1 -1.7
v 2.4 0.5 1.9
v 2.4 0.5 -1.9
v 2.1 0.5 1
v 2.1 0.5 0.8
v 2.1 0.5 -0.8
v 2.1 0.5 -1
v 1.9 0.5 1.9
v 1.9 0.5 1
v 1.9 0.5 0.8
v 1.9 0.5 -0.8
v 1.9 0.5 -1
v 1.9 0.5 -1.9
v 2.4 4.3 1.9
v 1.9 4.3 1.9
v 2.4 0.5 1.9
v 1.9 0.5 1.9
v 2.1 0.7 0.8
v 1.9 0.7 0.8
v 2.1 0.6 0.8
v 1.9 0.6 0.8
v 2.1 0.5 0.8
v 1.9 0.5 0.8
v 2.1 0.7 -1
v 1.9 0.7 -1
v 2.1 0.6 -1
v 1.9 0.6 -1
v 2.1 0.5 -1
v 1.9 0.5 -1
v 2.2 4.1 -1.7
v 1.9 4.1 -1.7
v 2.2 0.7 -1.7
v 1.9 0.7 -1.7
v 2.2 4.1 1.7
v 1.9 4.1 1.7
v 2.2 0.7 1.7
v 1.9 0.7 1.7
v 2.1 0.7 1
v 1.9 0.7 1
v 2.1 0.6 1
v 1.9 0.6 1
v 2.1 0.5 1
v 1.9 0.5 1
v 2.1 0.7 -0.8
v 1.9 0.7 -0.8
v 2.1 0.6 -0.8
v 1.9 0.6 -0.8
v 2.1 0.5 -0.8
v 1.9 0.5 -0.8
v 2.4 4.3 -1.9
v 1.9 4.3 -1.9
v 2.4 0.5 -1.9
v 1.9 0.5 -1.9
v 2.4 4.3 1.9
v 2.4 0.5 1.9
v 2.4 3.9 1
v 2.4 3.5 1
v 2.4 2.6 1
v 2.4 1.9 1
v 2.4 3.9 0.9
v 2.4 3.7 0.9
v 2.4 3.6 0.9
v 2.4 3.5 0.9
v 2.4 3.4 0.9
v 2.4 2.9 0.9
v 2.4 2.6 0.9
v 2.4 2.5 0.9
v 2.4 2 0.9
v 2.4 1.9 0.9
v 2.4 1.7 0.9
v 2.4 2.8 0.8
v 2.4 2.5 0.8
v 2.4 2 0.8
v 2.4 1.7 0.8
v 2.4 1.6 0.8
v 2.4 3.9 0.7
v 2.4 3.7 0.7
v 2.4 3.6 0.7
v 2.4 3.5 0.7
v 2.4 3.4 0.7
v 2.4 2.7 0.7
v 2.4 2.5 0.7
v 2.4 2 0.7
v 2.4 1.7 0.7
v 2.4 1.6 0.7
v 2.4 1.5 0.7
v 2.4 3.9 0.6
v 2.4 3.5 0.6
v 2.4 3 0.6
v 2.4 2.9 0.6
v 2.4 2.8 0.6
v 2.4 2.7 0.6
v 2.4 2.5 0.6
v 2.4 2.4 0.6
v 2.4 2.3 0.6
v 2.4 2 0.6
v 2.4 1.7 0.6
v 2.4 1.6 0.6
v 2.4 1.5 0.6
v 2.4 1.4 0.6
v 2.4 3.9 0.5
v 2.4 3.8 0.5
v 2.4 3.6 0.5
v 2.4 3.4 0.5
v 2.4 2.4 0.5
v 2.4 2.3 0.5
v 2.4 1.4 0.5
v 2.4 1.3 0.5
v 2.4 3.7 0.4
v 2.4 3.6 0.4
v 2.4 3.5 0.4
v 2.4 1.9 0.4
v 2.4 1.8 0.4
v 2.4 1.7 0.4
v 2.4 1.6 0.4
v 2.4 1.5 0.4
v 2.4 1.4 0.4
v 2.4 2.7 0.3
v 2.4 2.6 0.3
v 2.4 2.1 0.3
v 2.4 2 0.3
v 2.4 1.9 0.3
v 2.4 1.8 0.3
v 2.4 1.3 0.3
v 2.4 1.2 0.3
v 2.4 3.8 0.2
v 2.4 3.7 0.2
v 2.4 3.6 0.2
v 2.4 2.7 0.2
v 2.4 2.6 0.2
v 2.4 2.1 0.2
v 2.4 2 0.2
v 2.4 1.8 0.2
v 2.4 1.7 0.2
v 2.4 1.5 0.2
v 2.4 1.4 0.2
v 2.4 1.3 0.2
v 2.4 3.9 0.1
v 2.4 3.7 0.1
v 2.4 3.5 0.1
v 2.4 3.4 0.1
v 2.4 3.1 0.1
v 2.4 3 0.1
v 2.4 2.9 0.1
v 2.4 1.8 0.1
v 2.4 1.7 0.1
v 2.4 1.6 0.1
v 2.4 1.5 0.1
v 2.4 3.9 0
v 2.4 3.8 0
v 2.4 3.6 0
v 2.4 3.4 0
v 2.4 2.5 0
v 2.4 2.4 0
v 2.4 3.7 -0.1
v 2.4 3.6 -0.1
v 2.4 3.5 -0.1
v 2.4 2.9 -0.1
v 2.4 2.8 -0.1
v 2.4 2.5 -0.1
v 2.4 2.4 -0.1
v 2.4 2.2 -0.1
v 2.4 2.1 -0.1
v 2.4 2.9 -0.2
v 2.4 2.8 -0.2
v 2.4 2.2 -0.2
v 2.4 2.1 -0.2
v 2.4 1.9 -0.2
v 2.4 1.8 -0.2
v 2.4 1.6 -0.2
v 2.4 1.5 -0.2
v 2.4 3.8 -0.3
v 2.4 3.7 -0.3
v 2.4 3.6 -0.3
v 2.4 3.2 -0.3
v 2.4 3.1 -0.3
v 2.4 3 -0.3
v 2.4 1.9 -0.3
v 2.4 1.8 -0.3
v 2.4 1.5 -0.3
v 2.4 1.4 -0.3
v 2.4 1.3 -0.3
v 2.4 3.9 -0.4
v 2.4 3.7 -0.4
v 2.4 3.5 -0.4
v 2.4 3.4 -0.4
v 2.4 2.8 -0.4
v 2.4 2.7 -0.4
v 2.4 2 -0.4
v 2.4 1.9 -0.4
v 2.4 1.3 -0.4
v 2.4 1.2 -0.4
v 2.4 3.9 -0.5
v 2.4 3.4 -0.5
v 2.4 2.8 -0.5
v 2.4 2.7 -0.5
v 2.4 2.4 -0.5
v 2.4 2.3 -0.5
v 2.4 2 -0.5
v 2.4 1.9 -0.5
v 2.4 1.6 -0.5
v 2.4 1.5 -0.5
v 2.4 3.9 -0.6
v 2.4 3.4 -0.6
v 2.4 2.9 -0.6
v 2.4 2.8 -0.6
v 2.4 2.4 -0.6
v 2.4 2.3 -0.6
v 2.4 1.6 -0.6
v 2.4 1.4 -0.6
v 2.4 3.7 -0.7
v 2.4 3.4 -0.7
v 2.4 2.9 -0.7
v 2.4 2.8 -0.7
v 2.4 2.7 -0.7
v 2.4 2.1 -0.7
v 2.4 1.6 -0.7
v 2.4 1.3 -0.7
v 2.4 3.6 -0.8
v 2.4 3.5 -0.8
v 2.4 3.3 -0.8
v 2.4 3.2 -0.8
v 2.4 3.1 -0.8
v 2.4 2.8 -0.8
v 2.4 2.7 -0.8
v 2.4 2.5 -0.8
v 2.4 2.1 -0.8
v 2.4 1.6 -0.8
v 2.4 3 -0.9
v 2.4 2.5 -0.9
v 2.4 2.1 -0.9
v 2.4 3.9 -1
v 2.4 3.7 -1
v 2.4 3.6 -1
v 2.4 3.5 -1
v 2.4 3.2 -1
v 2.4 3 -1
v 2.4 2.5 -1
v 2.4 3.9 -1.1
v 2.4 3.4 -1.1
v 2.4 3.3 -1.1
v 2.4 3 -1.1
v 2.4 4.3 -1.9
v 2.4 0.5 -1.9
v 2.2 4.1 1.7
v 2.2 0.7 1.7
v 2.2 4.1 -1.7
v 2.2 0.7 -1.7
v 2.1 0.7 1
v 2.1 0.6 1
v 2.1 0.5 1
v 2.1 0.7 0.8
v 2.1 0.6 0.8
v 2.1 0.5 0.8
v 2.1 0.7 -0.8
v 2.1 0.6 -0.8
v 2.1 0.5 -0.8
v 2.1 0.7 -1
v 2.1 0.6 -1
v 2.1 0.5 -1
v 1.9 4.3 1.9
v 1.9 0.5 1.9
v 1.9 4.2 1.8
v 1.9 0.6 1.8
v 1.9 4.1 1.7
v 1.9 0.7 1.7
v 1.9 0.7 1
v 1.9 0.6 1
v 1.9 0.5 1
v 1.9 0.7 0.8
v 1.9 0.6 0.8
v 1.9 0.5 0.8
v 1.9 0.7 -0.8
v 1.9 0.6 -0.8
v 1.9 0.5 -0.8
v 1.9 0.7 -1
v 1.9 0.6 -1
v 1.9 0.5 -1
v 1.9 4.1 -1.7
v 1.9 0.7 -1.7
v 1.9 4.2 -1.8
v 1.9 0.6 -1.8
v 1.9 4.3 -1.9
v 1.9 0.5 -1.9

# faces
f 1/6/1 2/6/1 3/6/1
f 3/6/1 2/6/1 4/6/1
f 5/5/1 6/5/1 7/5/1
f 7/5/1 6/5/1 8/5/1
f 8/5/1 6/5/1 9/5/1
f 9/5/1 6/5/1 10/5/1
f 5/5/1 7/5/1 11/5/1
f 11/5/1 7/5/1 12/5/1
f 8/5/1 9/5/1 13/5/1
f 13/5/1 9/5/1 14/5/1
f 10/5/1 6/5/1 15/5/1
f 15/5/1 6/5/1 16/5/1
f 19/5/2 18/5/2 17/5/2
f 20/5/2 18/5/2 19/5/2
f 23/6/2 22/6/2 21/6/2
f 24/6/2 22/6/2 23/6/2
f 25/6/2 22/6/2 24/6/2
f 26/6/2 22/6/2 25/6/2
f 27/6/2 23/6/2 21/6/2
f 28/6/2 23/6/2 27/6/2
f 29/6/2 25/6/2 24/6/2
f 30/6/2 25/6/2 29/6/2
f 31/6/2 22/6/2 26/6/2
f 32/6/2 22/6/2 31/6/2
f 33/6/3 34/6/3 35/6/3
f 35/6/3 34/6/3 36/6/3
f 37/5/3 38/5/3 39/5/3
f 39/5/3 38/5/3 40/5/3
f 39/6/3 40/6/3 41/6/3
f 41/6/3 40/6/3 42/6/3
f 43/5/3 44/5/3 45/5/3
f 45/5/3 44/5/3 46/5/3
f 45/6/3 46/6/3 47/6/3
f 47/6/3 46/6/3 48/6/3
f 49/5/3 50/5/3 51/5/3
f 51/5/3 50/5/3 52/5/3
f 55/5/4 54/5/4 53/5/4
f 56/5/4 54/5/4 55/5/4
f 59/5/4 58/5/4 57/5/4
f 60/5/4 58/5/4 59/5/4
f 61/6/4 60/6/4 59/6/4
f 62/6/4 60/6/4 61/6/4
f 65/5/4 64/5/4 63/5/4
f 66/5/4 64/5/4 65/5/4
f 67/6/4 66/6/4 65/6/4
f 68/6/4 66/6/4 67/6/4
f 71/6/4 70/6/4 69/6/4
f 72/6/4 70/6/4 71/6/4
f 73/6/5 74/6/5 75/6/5
f 75/6/5 74/6/5 76/6/5
f 76/6/5 74/6/5 77/6/5
f 77/6/5 74/6/5 78/6/5
f 73/6/5 75/6/5 79/6/5
f 75/8/5 76/8/5 79/8/5
f 79/8/5 76/8/5 80/8/5
f 80/8/5 76/8/5 81/8/5
f 76/6/5 77/6/5 82/6/5
f 81/8/5 76/8/5 82/8/5
f 82/6/5 77/6/5 83/6/5
f 83/6/5 77/6/5 84/6/5
f 77/4/5 78/4/5 85/4/5
f 84/6/5 77/6/5 85/6/5
f 85/4/5 78/4/5 86/4/5
f 86/4/5 78/4/5 87/4/5
f 78/6/5 74/6/5 88/6/5
f 87/4/5 78/4/5 88/4/5
f 88/6/5 74/6/5 89/6/5
f 84/4/5 85/4/5 90/4/5
f 85/4/5 86/4/5 90/4/5
f 86/3/5 87/3/5 91/3/5
f 90/4/5 86/4/5 91/4/5
f 88/4/5 89/4/5 92/4/5
f 91/3/5 87/3/5 92/3/5
f 87/4/5 88/4/5 92/4/5
f 89/6/5 74/6/5 93/6/5
f 92/4/5 89/4/5 93/4/5
f 93/6/5 74/6/5 94/6/5
f 73/6/5 79/6/5 95/6/5
f 79/6/5 80/6/5 95/6/5
f 80/8/5 81/8/5 96/8/5
f 95/6/5 80/6/5 96/6/5
f 81/6/5 82/6/5 97/6/5
f 96/8/5 81/8/5 97/8/5
f 82/8/5 83/8/5 98/8/5
f 97/6/5 82/6/5 98/6/5
f 83/6/5 84/6/5 99/6/5
f 98/8/5 83/8/5 99/8/5
f 90/3/5 91/3/5 100/3/5
f 91/1/5 92/1/5 101/1/5
f 100/3/5 91/3/5 101/3/5
f 92/3/5 93/3/5 102/3/5
f 101/1/5 92/1/5 102/1/5
f 93/4/5 94/4/5 103/4/5
f 102/3/5 93/3/5 103/3/5
f 94/6/5 74/6/5 104/6/5
f 103/4/5 94/4/5 104/4/5
f 104/6/5 74/6/5 105/6/5
f 97/8/5 98/8/5 106/8/5
f 73/6/5 95/6/5 106/6/5
f 95/8/5 96/8/5 106/8/5
f 96/8/5 97/8/5 106/8/5
f 98/6/5 99/6/5 107/6/5
f 106/8/5 98/8/5 107/8/5
f 99/6/5 84/6/5 108/6/5
f 107/6/5 99/6/5 108/6/5
f 84/4/5 90/4/5 109/4/5
f 108/6/5 84/6/5 109/6/5
f 90/3/5 100/3/5 110/3/5
f 109/4/5 90/4/5 110/4/5
f 100/1/5 101/1/5 111/1/5
f 110/3/5 100/3/5 111/3/5
f 101/3/5 102/3/5 112/3/5
f 111/1/5 101/1/5 112/1/5
f 112/3/5 102/3/5 113/3/5
f 113/3/5 102/3/5 114/3/5
f 102/1/5 103/1/5 115/1/5
f 114/3/5 102/3/5 115/3/5
f 103/3/5 104/3/5 116/3/5
f 115/1/5 103/1/5 116/1/5
f 104/4/5 105/4/5 117/4/5
f 116/3/5 104/3/5 117/3/5
f 105/6/5 74/6/5 118/6/5
f 117/4/5 105/4/5 118/4/5
f 118/6/5 74/6/5 119/6/5
f 107/6/5 108/6/5 120/6/5
f 73/6/5 106/6/5 120/6/5
f 106/6/5 107/6/5 120/6/5
f 120/6/5 108/6/5 121/6/5
f 121/6/5 108/6/5 122/6/5
f 122/6/5 108/6/5 123/6/5
f 113/7/5 114/7/5 124/7/5
f 110/3/5 111/3/5 124/3/5
f 109/3/5 110/3/5 124/3/5
f 111/3/5 112/3/5 124/3/5
f 112/3/5 113/3/5 124/3/5
f 115/3/5 116/3/5 125/3/5
f 124/7/5 114/7/5 125/7/5
f 114/3/5 115/3/5 125/3/5
f 119/6/5 74/6/5 126/6/5
f 118/4/5 119/4/5 126/4/5
f 126/6/5 74/6/5 127/6/5
f 121/6/5 122/6/5 128/6/5
f 122/8/5 123/8/5 129/8/5
f 128/6/5 122/6/5 129/6/5
f 129/8/5 123/8/5 130/8/5
f 125/3/5 116/3/5 131/3/5
f 124/3/5 125/3/5 131/3/5
f 131/3/5 116/3/5 132/3/5
f 116/1/5 117/1/5 133/1/5
f 132/3/5 116/3/5 133/3/5
f 117/3/5 118/3/5 134/3/5
f 133/1/5 117/1/5 134/1/5
f 118/4/5 126/4/5 135/4/5
f 134/3/5 118/3/5 135/3/5
f 126/4/5 127/4/5 135/4/5
f 135/4/5 127/4/5 136/4/5
f 109/3/5 124/3/5 137/3/5
f 124/3/5 131/3/5 137/3/5
f 137/3/5 131/3/5 138/3/5
f 138/3/5 131/3/5 139/3/5
f 139/3/5 131/3/5 140/3/5
f 131/7/5 132/7/5 141/7/5
f 140/3/5 131/3/5 141/3/5
f 132/3/5 133/3/5 142/3/5
f 141/7/5 132/7/5 142/7/5
f 133/3/5 134/3/5 142/3/5
f 136/4/5 127/4/5 143/4/5
f 127/6/5 74/6/5 143/6/5
f 143/6/5 74/6/5 144/6/5
f 121/6/5 128/6/5 145/6/5
f 120/8/5 121/8/5 145/8/5
f 128/8/5 129/8/5 146/8/5
f 145/6/5 128/6/5 146/6/5
f 129/6/5 130/6/5 147/6/5
f 146/8/5 129/8/5 147/8/5
f 109/3/5 137/3/5 148/3/5
f 137/2/5 138/2/5 148/2/5
f 138/3/5 139/3/5 149/3/5
f 148/2/5 138/2/5 149/2/5
f 139/2/5 140/2/5 150/2/5
f 149/3/5 139/3/5 150/3/5
f 140/3/5 141/3/5 151/3/5
f 150/2/5 140/2/5 151/2/5
f 141/3/5 142/3/5 151/3/5
f 142/3/5 134/3/5 152/3/5
f 151/3/5 142/3/5 152/3/5
f 152/3/5 134/3/5 153/3/5
f 135/3/5 136/3/5 154/3/5
f 134/1/5 135/1/5 154/1/5
f 136/4/5 143/4/5 155/4/5
f 154/3/5 136/3/5 155/3/5
f 143/4/5 144/4/5 155/4/5
f 155/4/5 144/4/5 156/4/5
f 73/6/5 120/6/5 157/6/5
f 145/8/5 146/8/5 157/8/5
f 120/8/5 145/8/5 157/8/5
f 146/6/5 147/6/5 158/6/5
f 157/8/5 146/8/5 158/8/5
f 130/8/5 123/8/5 159/8/5
f 158/6/5 147/6/5 159/6/5
f 147/6/5 130/6/5 159/6/5
f 123/6/5 108/6/5 160/6/5
f 159/8/5 123/8/5 160/8/5
f 160/6/5 108/6/5 161/6/5
f 108/4/5 109/4/5 162/4/5
f 161/6/5 108/6/5 162/6/5
f 148/3/5 149/3/5 163/3/5
f 162/4/5 109/4/5 163/4/5
f 150/3/5 151/3/5 163/3/5
f 149/3/5 150/3/5 163/3/5
f 151/3/5 152/3/5 163/3/5
f 109/3/5 148/3/5 163/3/5
f 152/2/5 153/2/5 164/2/5
f 163/3/5 152/3/5 164/3/5
f 153/3/5 134/3/5 165/3/5
f 164/2/5 153/2/5 165/2/5
f 134/1/5 154/1/5 166/1/5
f 165/3/5 134/3/5 166/3/5
f 154/1/5 155/1/5 166/1/5
f 166/1/5 155/1/5 167/1/5
f 157/6/5 158/6/5 168/6/5
f 159/6/5 160/6/5 168/6/5
f 158/6/5 159/6/5 168/6/5
f 160/6/5 161/6/5 168/6/5
f 73/6/5 157/6/5 168/6/5
f 168/6/5 161/6/5 169/6/5
f 169/6/5 161/6/5 170/6/5
f 170/6/5 161/6/5 171/6/5
f 166/3/5 167/3/5 172/3/5
f 165/3/5 166/3/5 172/3/5
f 163/3/5 164/3/5 172/3/5
f 162/3/5 163/3/5 172/3/5
f 164/3/5 165/3/5 172/3/5
f 172/3/5 167/3/5 173/3/5
f 169/6/5 170/6/5 174/6/5
f 170/8/5 171/8/5 175/8/5
f 174/6/5 170/6/5 175/6/5
f 175/8/5 171/8/5 176/8/5
f 162/3/5 172/3/5 177/3/5
f 177/3/5 172/3/5 178/3/5
f 172/7/5 173/7/5 179/7/5
f 178/3/5 172/3/5 179/3/5
f 173/3/5 167/3/5 180/3/5
f 179/7/5 173/7/5 180/7/5
f 180/3/5 167/3/5 181/3/5
f 181/3/5 167/3/5 182/3/5
f 177/7/5 178/7/5 183/7/5
f 162/3/5 177/3/5 183/3/5
f 178/3/5 179/3/5 184/3/5
f 183/7/5 178/7/5 184/7/5
f 179/3/5 180/3/5 184/3/5
f 180/3/5 181/3/5 184/3/5
f 181/2/5 182/2/5 185/2/5
f 184/3/5 181/3/5 185/3/5
f 182/3/5 167/3/5 186/3/5
f 185/2/5 182/2/5 186/2/5
f 186/3/5 167/3/5 187/3/5
f 187/3/5 167/3/5 188/3/5
f 188/3/5 167/3/5 189/3/5
f 167/1/5 155/1/5 190/1/5
f 189/3/5 167/3/5 190/3/5
f 169/6/5 174/6/5 191/6/5
f 168/8/5 169/8/5 191/8/5
f 174/8/5 175/8/5 192/8/5
f 191/6/5 174/6/5 192/6/5
f 175/6/5 176/6/5 193/6/5
f 192/8/5 175/8/5 193/8/5
f 171/6/5 161/6/5 194/6/5
f 161/4/5 162/4/5 195/4/5
f 194/6/5 161/6/5 195/6/5
f 162/3/5 183/3/5 196/3/5
f 195/4/5 162/4/5 196/4/5
f 184/3/5 185/3/5 196/3/5
f 183/3/5 184/3/5 196/3/5
f 185/3/5 186/3/5 196/3/5
f 186/3/5 187/3/5 196/3/5
f 187/7/5 188/7/5 197/7/5
f 196/3/5 187/3/5 197/3/5
f 188/3/5 189/3/5 198/3/5
f 197/7/5 188/7/5 198/7/5
f 190/1/5 155/1/5 199/1/5
f 189/1/5 190/1/5 199/1/5
f 155/3/5 156/3/5 200/3/5
f 199/1/5 155/1/5 200/1/5
f 156/4/5 144/4/5 201/4/5
f 200/3/5 156/3/5 201/3/5
f 73/6/5 168/6/5 202/6/5
f 168/8/5 191/8/5 202/8/5
f 191/8/5 192/8/5 202/8/5
f 192/6/5 193/6/5 203/6/5
f 202/8/5 192/8/5 203/8/5
f 193/6/5 176/6/5 204/6/5
f 203/6/5 193/6/5 204/6/5
f 176/8/5 171/8/5 204/8/5
f 171/6/5 194/6/5 205/6/5
f 204/8/5 171/8/5 205/8/5
f 196/3/5 197/3/5 206/3/5
f 197/3/5 198/3/5 206/3/5
f 195/3/5 196/3/5 206/3/5
f 206/3/5 198/3/5 207/3/5
f 207/3/5 198/3/5 208/3/5
f 208/3/5 198/3/5 209/3/5
f 201/4/5 144/4/5 210/4/5
f 200/4/5 201/4/5 210/4/5
f 144/6/5 74/6/5 211/6/5
f 210/4/5 144/4/5 211/4/5
f 203/6/5 204/6/5 212/6/5
f 202/6/5 203/6/5 212/6/5
f 204/6/5 205/6/5 212/6/5
f 73/6/5 202/6/5 212/6/5
f 205/6/5 194/6/5 213/6/5
f 212/6/5 205/6/5 213/6/5
f 206/2/5 207/2/5 214/2/5
f 195/3/5 206/3/5 214/3/5
f 207/3/5 208/3/5 215/3/5
f 214/2/5 207/2/5 215/2/5
f 215/3/5 208/3/5 216/3/5
f 216/3/5 208/3/5 217/3/5
f 208/2/5 209/2/5 218/2/5
f 217/3/5 208/3/5 218/3/5
f 209/3/5 198/3/5 219/3/5
f 218/2/5 209/2/5 219/2/5
f 198/3/5 189/3/5 220/3/5
f 219/3/5 198/3/5 220/3/5
f 189/1/5 199/1/5 220/1/5
f 199/3/5 200/3/5 221/3/5
f 220/1/5 199/1/5 221/1/5
f 73/6/5 212/6/5 222/6/5
f 212/8/5 213/8/5 222/8/5
f 213/6/5 194/6/5 223/6/5
f 222/8/5 213/8/5 223/8/5
f 215/3/5 216/3/5 224/3/5
f 195/3/5 214/3/5 224/3/5
f 214/3/5 215/3/5 224/3/5
f 224/3/5 216/3/5 225/3/5
f 216/7/5 217/7/5 226/7/5
f 225/3/5 216/3/5 226/3/5
f 218/3/5 219/3/5 227/3/5
f 226/7/5 217/7/5 227/7/5
f 219/3/5 220/3/5 227/3/5
f 217/3/5 218/3/5 227/3/5
f 220/3/5 221/3/5 227/3/5
f 227/3/5 221/3/5 228/3/5
f 221/3/5 200/3/5 229/3/5
f 228/3/5 221/3/5 229/3/5
f 200/4/5 210/4/5 229/4/5
f 222/6/5 223/6/5 230/6/5
f 223/6/5 194/6/5 231/6/5
f 230/6/5 223/6/5 231/6/5
f 195/3/5 224/3/5 232/3/5
f 224/7/5 225/7/5 232/7/5
f 227/3/5 228/3/5 233/3/5
f 232/7/5 225/7/5 233/7/5
f 225/3/5 226/3/5 233/3/5
f 226/3/5 227/3/5 233/3/5
f 233/3/5 228/3/5 234/3/5
f 234/3/5 228/3/5 235/3/5
f 228/4/5 229/4/5 236/4/5
f 235/3/5 228/3/5 236/3/5
f 210/6/5 211/6/5 237/6/5
f 236/4/5 229/4/5 237/4/5
f 229/4/5 210/4/5 237/4/5
f 230/8/5 231/8/5 238/8/5
f 238/8/5 231/8/5 239/8/5
f 231/6/5 194/6/5 240/6/5
f 194/4/5 195/4/5 241/4/5
f 240/6/5 194/6/5 241/6/5
f 195/3/5 232/3/5 242/3/5
f 241/4/5 195/4/5 242/4/5
f 232/3/5 233/3/5 242/3/5
f 233/2/5 234/2/5 243/2/5
f 242/3/5 233/3/5 243/3/5
f 234/3/5 235/3/5 244/3/5
f 243/2/5 234/2/5 244/2/5
f 244/3/5 235/3/5 245/3/5
f 235/4/5 236/4/5 246/4/5
f 245/3/5 235/3/5 246/3/5
f 236/6/5 237/6/5 247/6/5
f 246/4/5 236/4/5 247/4/5
f 244/3/5 245/3/5 248/3/5
f 242/3/5 243/3/5 248/3/5
f 241/3/5 242/3/5 248/3/5
f 243/3/5 244/3/5 248/3/5
f 245/4/5 246/4/5 249/4/5
f 248/3/5 245/3/5 249/3/5
f 246/6/5 247/6/5 250/6/5
f 249/4/5 246/4/5 250/4/5
f 222/6/5 230/6/5 251/6/5
f 73/6/5 222/6/5 251/6/5
f 230/8/5 238/8/5 252/8/5
f 251/6/5 230/6/5 252/6/5
f 238/6/5 239/6/5 253/6/5
f 252/8/5 238/8/5 253/8/5
f 239/8/5 231/8/5 254/8/5
f 253/6/5 239/6/5 254/6/5
f 240/4/5 241/4/5 255/4/5
f 241/3/5 248/3/5 255/3/5
f 248/4/5 249/4/5 256/4/5
f 255/3/5 248/3/5 256/3/5
f 249/6/5 250/6/5 257/6/5
f 256/4/5 249/4/5 257/4/5
f 252/8/5 253/8/5 258/8/5
f 73/6/5 251/6/5 258/6/5
f 251/8/5 252/8/5 258/8/5
f 253/8/5 254/8/5 258/8/5
f 254/8/5 231/8/5 259/8/5
f 258/8/5 254/8/5 259/8/5
f 231/6/5 240/6/5 259/6/5
f 240/4/5 255/4/5 260/4/5
f 259/6/5 240/6/5 260/6/5
f 255/4/5 256/4/5 260/4/5
f 256/6/5 257/6/5 261/6/5
f 260/4/5 256/4/5 261/4/5
f 73/6/5 258/6/5 262/6/5
f 258/6/5 259/6/5 262/6/5
f 260/6/5 261/6/5 262/6/5
f 259/6/5 260/6/5 262/6/5
f 261/6/5 257/6/5 263/6/5
f 262/6/5 261/6/5 263/6/5
f 211/6/5 74/6/5 263/6/5
f 257/6/5 250/6/5 263/6/5
f 237/6/5 211/6/5 263/6/5
f 250/6/5 247/6/5 263/6/5
f 247/6/5 237/6/5 263/6/5
f 266/5/6 265/5/6 264/5/6
f 267/5/6 265/5/6 266/5/6
f 271/5/6 269/5/6 268/5/6
f 272/6/6 270/6/6 269/6/6
f 272/5/6 269/5/6 271/5/6
f 273/6/6 270/6/6 272/6/6
f 277/5/6 275/5/6 274/5/6
f 278/6/6 276/6/6 275/6/6
f 278/5/6 275/5/6 277/5/6
f 279/6/6 276/6/6 278/6/6
f 282/6/6 281/6/6 280/6/6
f 283/6/6 281/6/6 282/6/6
f 284/5/6 283/5/6 282/5/6
f 285/5/6 283/5/6 284/5/6
f 286/5/6 283/5/6 285/5/6
f 287/6/6 281/6/6 283/6/6
f 287/5/6 283/5/6 286/5/6
f 288/6/6 281/6/6 287/6/6
f 292/5/6 290/5/6 289/5/6
f 293/6/6 291/6/6 290/6/6
f 293/5/6 290/5/6 292/5/6
f 294/6/6 291/6/6 293/6/6
f 298/5/6 284/5/6 282/5/6
f 299/5/6 296/5/6 295/5/6
f 300/6/6 282/6/6 280/6/6
f 300/5/6 299/5/6 298/5/6
f 300/5/6 298/5/6 282/5/6
f 301/5/6 296/5/6 299/5/6
f 301/5/6 299/5/6 300/5/6
f 301/6/6 297/6/6 296/6/6
f 302/6/6 300/6/6 280/6/6
f 302/6/6 301/6/6 300/6/6
f 303/6/6 297/6/6 301/6/6
f 303/6/6 301/6/6 302/6/6
