# MagicaVoxel @ Ephtracy

# group
o 

# material
mtllib pizza-1.mtl
usemtl palette

# normals
vn -1 0 0
vn 1 0 0
vn 0 0 1
vn 0 0 -1
vn 0 -1 0
vn 0 1 0

# texcoords
vt 0.369141 0.5
vt 0.849609 0.5

# verts
v -1.9 0 1.9
v -1.9 0 -1.9
v -1.9 0.5 1.9
v -1.9 0.5 -1.9
v 1.7 0.2 1.7
v 1.7 0.2 -1.7
v 1.7 0.3 1
v 1.7 0.3 0.8
v 1.7 0.3 -0.8
v 1.7 0.3 -1
v 1.7 0.5 1.7
v 1.7 0.5 1
v 1.7 0.5 0.8
v 1.7 0.5 -0.8
v 1.7 0.5 -1
v 1.7 0.5 -1.7
v -1.7 0.2 1.7
v -1.7 0.2 -1.7
v -1.7 0.5 1.7
v -1.7 0.5 -1.7
v 1.9 0 1.9
v 1.9 0 -1.9
v 1.9 0.3 1
v 1.9 0.3 0.8
v 1.9 0.3 -0.8
v 1.9 0.3 -1
v 1.9 0.5 1.9
v 1.9 0.5 1
v 1.9 0.5 0.8
v 1.9 0.5 -0.8
v 1.9 0.5 -1
v 1.9 0.5 -1.9
v -1.9 0 1.9
v -1.9 0.5 1.9
v 1.9 0 1.9
v 1.9 0.5 1.9
v 1.7 0.3 0.8
v 1.7 0.5 0.8
v 1.8 0.3 0.8
v 1.8 0.5 0.8
v 1.9 0.3 0.8
v 1.9 0.5 0.8
v 1.7 0.3 -1
v 1.7 0.5 -1
v 1.8 0.3 -1
v 1.8 0.5 -1
v 1.9 0.3 -1
v 1.9 0.5 -1
v -1.7 0.2 -1.7
v -1.7 0.5 -1.7
v 1.7 0.2 -1.7
v 1.7 0.5 -1.7
v -1.7 0.2 1.7
v -1.7 0.5 1.7
v 1.7 0.2 1.7
v 1.7 0.5 1.7
v 1.7 0.3 1
v 1.7 0.5 1
v 1.8 0.3 1
v 1.8 0.5 1
v 1.9 0.3 1
v 1.9 0.5 1
v 1.7 0.3 -0.8
v 1.7 0.5 -0.8
v 1.8 0.3 -0.8
v 1.8 0.5 -0.8
v 1.9 0.3 -0.8
v 1.9 0.5 -0.8
v -1.9 0 -1.9
v -1.9 0.5 -1.9
v 1.9 0 -1.9
v 1.9 0.5 -1.9
v -1.9 0 1.9
v 1.9 0 1.9
v -1.9 0 -1.9
v 1.9 0 -1.9
v -1.7 0.2 1.7
v 1.7 0.2 1.7
v -1.7 0.2 -1.7
v 1.7 0.2 -1.7
v 1.7 0.3 1
v 1.8 0.3 1
v 1.9 0.3 1
v 1.7 0.3 0.8
v 1.8 0.3 0.8
v 1.9 0.3 0.8
v 1.7 0.3 -0.8
v 1.8 0.3 -0.8
v 1.9 0.3 -0.8
v 1.7 0.3 -1
v 1.8 0.3 -1
v 1.9 0.3 -1
v -1.9 0.5 1.9
v 1.9 0.5 1.9
v -1.8 0.5 1.8
v 1.8 0.5 1.8
v -1.7 0.5 1.7
v 1.7 0.5 1.7
v 1.7 0.5 1
v 1.8 0.5 1
v 1.9 0.5 1
v 1.7 0.5 0.8
v 1.8 0.5 0.8
v 1.9 0.5 0.8
v 1.7 0.5 -0.8
v 1.8 0.5 -0.8
v 1.9 0.5 -0.8
v 1.7 0.5 -1
v 1.8 0.5 -1
v 1.9 0.5 -1
v -1.7 0.5 -1.7
v 1.7 0.5 -1.7
v -1.8 0.5 -1.8
v 1.8 0.5 -1.8
v -1.9 0.5 -1.9
v 1.9 0.5 -1.9

# faces
f 3/2/1 2/2/1 1/2/1
f 4/2/1 2/2/1 3/2/1
f 7/1/1 6/1/1 5/1/1
f 8/1/1 6/1/1 7/1/1
f 9/1/1 6/1/1 8/1/1
f 10/1/1 6/1/1 9/1/1
f 11/1/1 7/1/1 5/1/1
f 12/1/1 7/1/1 11/1/1
f 13/1/1 9/1/1 8/1/1
f 14/1/1 9/1/1 13/1/1
f 15/1/1 6/1/1 10/1/1
f 16/1/1 6/1/1 15/1/1
f 17/1/2 18/1/2 19/1/2
f 19/1/2 18/1/2 20/1/2
f 21/2/2 22/2/2 23/2/2
f 23/2/2 22/2/2 24/2/2
f 24/2/2 22/2/2 25/2/2
f 25/2/2 22/2/2 26/2/2
f 21/2/2 23/2/2 27/2/2
f 27/2/2 23/2/2 28/2/2
f 24/2/2 25/2/2 29/2/2
f 29/2/2 25/2/2 30/2/2
f 26/2/2 22/2/2 31/2/2
f 31/2/2 22/2/2 32/2/2
f 35/2/3 34/2/3 33/2/3
f 36/2/3 34/2/3 35/2/3
f 39/1/3 38/1/3 37/1/3
f 40/1/3 38/1/3 39/1/3
f 41/2/3 40/2/3 39/2/3
f 42/2/3 40/2/3 41/2/3
f 45/1/3 44/1/3 43/1/3
f 46/1/3 44/1/3 45/1/3
f 47/2/3 46/2/3 45/2/3
f 48/2/3 46/2/3 47/2/3
f 51/1/3 50/1/3 49/1/3
f 52/1/3 50/1/3 51/1/3
f 53/1/4 54/1/4 55/1/4
f 55/1/4 54/1/4 56/1/4
f 57/1/4 58/1/4 59/1/4
f 59/1/4 58/1/4 60/1/4
f 59/2/4 60/2/4 61/2/4
f 61/2/4 60/2/4 62/2/4
f 63/1/4 64/1/4 65/1/4
f 65/1/4 64/1/4 66/1/4
f 65/2/4 66/2/4 67/2/4
f 67/2/4 66/2/4 68/2/4
f 69/2/4 70/2/4 71/2/4
f 71/2/4 70/2/4 72/2/4
f 75/2/5 74/2/5 73/2/5
f 76/2/5 74/2/5 75/2/5
f 77/1/6 78/1/6 79/1/6
f 79/1/6 78/1/6 80/1/6
f 81/1/6 82/1/6 84/1/6
f 82/2/6 83/2/6 85/2/6
f 84/1/6 82/1/6 85/1/6
f 85/2/6 83/2/6 86/2/6
f 87/1/6 88/1/6 90/1/6
f 88/2/6 89/2/6 91/2/6
f 90/1/6 88/1/6 91/1/6
f 91/2/6 89/2/6 92/2/6
f 93/2/6 94/2/6 95/2/6
f 95/2/6 94/2/6 96/2/6
f 95/1/6 96/1/6 97/1/6
f 97/1/6 96/1/6 98/1/6
f 98/1/6 96/1/6 99/1/6
f 96/2/6 94/2/6 100/2/6
f 99/1/6 96/1/6 100/1/6
f 100/2/6 94/2/6 101/2/6
f 102/1/6 103/1/6 105/1/6
f 103/2/6 104/2/6 106/2/6
f 105/1/6 103/1/6 106/1/6
f 106/2/6 104/2/6 107/2/6
f 95/1/6 97/1/6 111/1/6
f 108/1/6 109/1/6 112/1/6
f 93/2/6 95/2/6 113/2/6
f 111/1/6 112/1/6 113/1/6
f 95/1/6 111/1/6 113/1/6
f 112/1/6 109/1/6 114/1/6
f 113/1/6 112/1/6 114/1/6
f 109/2/6 110/2/6 114/2/6
f 93/2/6 113/2/6 115/2/6
f 113/2/6 114/2/6 115/2/6
f 114/2/6 110/2/6 116/2/6
f 115/2/6 114/2/6 116/2/6
