# MagicaVoxel @ Ephtracy

# group
o 

# material
mtllib prisoner.mtl
usemtl palette

# normals
vn -1 0 0
vn 1 0 0
vn 0 0 1
vn 0 0 -1
vn 0 -1 0
vn 0 1 0

# texcoords
vt 0.0332031 0.5
vt 0.876953 0.5
vt 0.955078 0.5
vt 0.958984 0.5
vt 0.962891 0.5
vt 0.986328 0.5
vt 0.990234 0.5

# verts
v -0.6 1.4 0.1
v -0.6 1.4 -0.1
v -0.6 1.7 0.5
v -0.6 1.7 0.1
v -0.6 1.7 -0.1
v -0.6 1.7 -0.5
v -0.6 2 0.5
v -0.6 2 0.3
v -0.6 2 -0.3
v -0.6 2 -0.5
v -0.6 2.1 0.3
v -0.6 2.1 -0.3
v -0.5 0.5 0.1
v -0.5 0.5 -0.1
v -0.5 0.6 0.1
v -0.5 0.6 -0.1
v -0.5 0.7 0.1
v -0.5 0.7 -0.1
v -0.5 0.8 0.1
v -0.5 0.8 -0.1
v -0.5 0.9 0.1
v -0.5 0.9 -0.1
v -0.5 1 0.1
v -0.5 1 -0.1
v -0.5 1.1 0.4
v -0.5 1.1 -0.4
v -0.5 1.4 0.1
v -0.5 1.4 -0.1
v -0.5 1.4 -0.3
v -0.5 1.4 -0.4
v -0.5 1.5 0.2
v -0.5 1.5 0.1
v -0.5 1.5 -0.1
v -0.5 1.5 -0.3
v -0.5 1.6 0.3
v -0.5 1.6 0.2
v -0.5 1.7 0.4
v -0.5 1.7 0.3
v -0.5 1.7 0.1
v -0.5 1.7 -0.1
v -0.5 1.7 -0.4
v -0.4 0 0.2
v -0.4 0 -0.1
v -0.4 0.1 0.2
v -0.4 0.1 0.1
v -0.4 0.1 -0.1
v -0.4 0.3 0.3
v -0.4 0.3 0.1
v -0.4 0.3 -0.1
v -0.4 0.3 -0.3
v -0.4 0.4 0.3
v -0.4 0.4 -0.3
v -0.4 0.5 0.3
v -0.4 0.5 0.1
v -0.4 0.5 -0.1
v -0.4 0.5 -0.3
v -0.4 0.6 0.3
v -0.4 0.6 0.1
v -0.4 0.6 -0.1
v -0.4 0.6 -0.3
v -0.4 0.7 0.3
v -0.4 0.7 0.1
v -0.4 0.7 -0.1
v -0.4 0.7 -0.3
v -0.4 0.8 0.3
v -0.4 0.8 0.1
v -0.4 0.8 -0.1
v -0.4 0.8 -0.3
v -0.4 0.9 0.3
v -0.4 0.9 0.1
v -0.4 0.9 -0.1
v -0.4 0.9 -0.3
v -0.4 1 0.4
v -0.4 1 0.3
v -0.4 1 0.1
v -0.4 1 -0.1
v -0.4 1 -0.3
v -0.4 1 -0.4
v -0.4 1.1 0.4
v -0.4 1.1 -0.4
v -0.4 2 0.5
v -0.4 2 0.3
v -0.4 2 -0.3
v -0.4 2 -0.5
v -0.4 2.1 0.5
v -0.4 2.1 0.3
v -0.4 2.1 -0.3
v -0.4 2.1 -0.5
v -0.4 2.2 0.3
v -0.4 2.2 -0.3
v -0.0999999 1.1 0.4
v -0.0999999 1.1 0.3
v -0.0999999 1.2 0.4
v -0.0999999 1.2 0.3
v -0.0999999 1.3 0.5
v -0.0999999 1.3 0.4
v -0.0999999 1.4 0.4
v -0.0999999 1.5 0.5
v -0.0999999 1.5 0.4
v 0.2 0 0.2
v 0.2 0 -0.1
v 0.2 0.1 0.2
v 0.2 0.1 0.1
v 0.2 0.1 -0.1
v 0.2 0.3 0.1
v 0.2 0.3 -0.1
v 0.2 1.1 0.4
v 0.2 1.1 0.3
v 0.2 1.2 0.4
v 0.2 1.2 0.3
v -0.2 0 0.2
v -0.2 0 -0.1
v -0.2 0.1 0.2
v -0.2 0.1 0.1
v -0.2 0.1 -0.1
v -0.2 0.3 0.1
v -0.2 0.3 -0.1
v -0.2 1.1 0.4
v -0.2 1.1 0.3
v -0.2 1.2 0.4
v -0.2 1.2 0.3
v 0.1 1.1 0.4
v 0.1 1.1 0.3
v 0.1 1.2 0.4
v 0.1 1.2 0.3
v 0.1 1.3 0.5
v 0.1 1.3 0.4
v 0.1 1.4 0.4
v 0.1 1.5 0.5
v 0.1 1.5 0.4
v 0.4 0 0.2
v 0.4 0 -0.1
v 0.4 0.1 0.2
v 0.4 0.1 0.1
v 0.4 0.1 -0.1
v 0.4 0.3 0.3
v 0.4 0.3 0.1
v 0.4 0.3 -0.1
v 0.4 0.3 -0.3
v 0.4 0.4 0.3
v 0.4 0.4 -0.3
v 0.4 0.5 0.3
v 0.4 0.5 0.1
v 0.4 0.5 -0.1
v 0.4 0.5 -0.3
v 0.4 0.6 0.3
v 0.4 0.6 0.1
v 0.4 0.6 -0.1
v 0.4 0.6 -0.3
v 0.4 0.7 0.3
v 0.4 0.7 0.1
v 0.4 0.7 -0.1
v 0.4 0.7 -0.3
v 0.4 0.8 0.3
v 0.4 0.8 0.1
v 0.4 0.8 -0.1
v 0.4 0.8 -0.3
v 0.4 0.9 0.3
v 0.4 0.9 0.1
v 0.4 0.9 -0.1
v 0.4 0.9 -0.3
v 0.4 1 0.4
v 0.4 1 0.3
v 0.4 1 0.1
v 0.4 1 -0.1
v 0.4 1 -0.3
v 0.4 1 -0.4
v 0.4 1.1 0.4
v 0.4 1.1 -0.4
v 0.4 2 0.5
v 0.4 2 0.3
v 0.4 2 -0.3
v 0.4 2 -0.5
v 0.4 2.1 0.5
v 0.4 2.1 0.3
v 0.4 2.1 -0.3
v 0.4 2.1 -0.5
v 0.4 2.2 0.3
v 0.4 2.2 -0.3
v 0.5 0.5 0.1
v 0.5 0.5 -0.1
v 0.5 0.6 0.1
v 0.5 0.6 -0.1
v 0.5 0.7 0.1
v 0.5 0.7 -0.1
v 0.5 0.8 0.1
v 0.5 0.8 -0.1
v 0.5 0.9 0.1
v 0.5 0.9 -0.1
v 0.5 1 0.1
v 0.5 1 -0.1
v 0.5 1.1 0.4
v 0.5 1.1 -0.4
v 0.5 1.4 0.1
v 0.5 1.4 -0.1
v 0.5 1.4 -0.3
v 0.5 1.4 -0.4
v 0.5 1.5 0.2
v 0.5 1.5 0.1
v 0.5 1.5 -0.1
v 0.5 1.5 -0.3
v 0.5 1.6 0.3
v 0.5 1.6 0.2
v 0.5 1.7 0.4
v 0.5 1.7 0.3
v 0.5 1.7 0.1
v 0.5 1.7 -0.1
v 0.5 1.7 -0.4
v 0.6 1.4 0.1
v 0.6 1.4 -0.1
v 0.6 1.7 0.5
v 0.6 1.7 0.1
v 0.6 1.7 -0.1
v 0.6 1.7 -0.5
v 0.6 2 0.5
v 0.6 2 0.3
v 0.6 2 -0.3
v 0.6 2 -0.5
v 0.6 2.1 0.3
v 0.6 2.1 -0.3
v -0.6 1.7 0.5
v -0.6 2 0.5
v -0.4 2 0.5
v -0.4 2.1 0.5
v -0.0999999 1.3 0.5
v -0.0999999 1.5 0.5
v 0.1 1.3 0.5
v 0.1 1.5 0.5
v 0.4 2 0.5
v 0.4 2.1 0.5
v 0.6 1.7 0.5
v 0.6 2 0.5
v -0.5 1.1 0.4
v -0.5 1.7 0.4
v -0.4 1 0.4
v -0.4 1.1 0.4
v -0.4 1.4 0.4
v -0.4 1.5 0.4
v -0.4 1.7 0.4
v -0.3 1.5 0.4
v -0.3 1.6 0.4
v -0.2 1.1 0.4
v -0.2 1.2 0.4
v -0.2 1.5 0.4
v -0.2 1.6 0.4
v -0.0999999 1.1 0.4
v -0.0999999 1.2 0.4
v -0.0999999 1.3 0.4
v -0.0999999 1.4 0.4
v -0.0999999 1.5 0.4
v -0.0999999 1.7 0.4
v 0.1 1.1 0.4
v 0.1 1.2 0.4
v 0.1 1.3 0.4
v 0.1 1.4 0.4
v 0.1 1.5 0.4
v 0.1 1.7 0.4
v 0.2 1.1 0.4
v 0.2 1.2 0.4
v 0.2 1.5 0.4
v 0.2 1.6 0.4
v 0.3 1.5 0.4
v 0.3 1.6 0.4
v 0.4 1 0.4
v 0.4 1.1 0.4
v 0.4 1.4 0.4
v 0.4 1.5 0.4
v 0.4 1.7 0.4
v 0.5 1.1 0.4
v 0.5 1.7 0.4
v -0.6 2 0.3
v -0.6 2.1 0.3
v -0.4 0.3 0.3
v -0.4 0.4 0.3
v -0.4 0.5 0.3
v -0.4 0.6 0.3
v -0.4 0.7 0.3
v -0.4 0.8 0.3
v -0.4 0.9 0.3
v -0.4 1 0.3
v -0.4 2 0.3
v -0.4 2.1 0.3
v -0.4 2.2 0.3
v -0.2 1.1 0.3
v -0.2 1.2 0.3
v -0.0999999 1.1 0.3
v -0.0999999 1.2 0.3
v 0.1 1.1 0.3
v 0.1 1.2 0.3
v 0.2 1.1 0.3
v 0.2 1.2 0.3
v 0.4 0.3 0.3
v 0.4 0.4 0.3
v 0.4 0.5 0.3
v 0.4 0.6 0.3
v 0.4 0.7 0.3
v 0.4 0.8 0.3
v 0.4 0.9 0.3
v 0.4 1 0.3
v 0.4 2 0.3
v 0.4 2.1 0.3
v 0.4 2.2 0.3
v 0.6 2 0.3
v 0.6 2.1 0.3
v -0.4 0 0.2
v -0.4 0.1 0.2
v -0.2 0 0.2
v -0.2 0.1 0.2
v 0.2 0 0.2
v 0.2 0.1 0.2
v 0.4 0 0.2
v 0.4 0.1 0.2
v -0.6 1.4 0.1
v -0.6 1.7 0.1
v -0.5 0.5 0.1
v -0.5 0.6 0.1
v -0.5 0.7 0.1
v -0.5 0.8 0.1
v -0.5 0.9 0.1
v -0.5 1 0.1
v -0.5 1.4 0.1
v -0.5 1.5 0.1
v -0.5 1.7 0.1
v -0.4 0.1 0.1
v -0.4 0.3 0.1
v -0.4 0.5 0.1
v -0.4 0.6 0.1
v -0.4 0.7 0.1
v -0.4 0.8 0.1
v -0.4 0.9 0.1
v -0.4 1 0.1
v -0.2 0.1 0.1
v -0.2 0.3 0.1
v 0.2 0.1 0.1
v 0.2 0.3 0.1
v 0.4 0.1 0.1
v 0.4 0.3 0.1
v 0.4 0.5 0.1
v 0.4 0.6 0.1
v 0.4 0.7 0.1
v 0.4 0.8 0.1
v 0.4 0.9 0.1
v 0.4 1 0.1
v 0.5 0.5 0.1
v 0.5 0.6 0.1
v 0.5 0.7 0.1
v 0.5 0.8 0.1
v 0.5 0.9 0.1
v 0.5 1 0.1
v 0.5 1.4 0.1
v 0.5 1.5 0.1
v 0.5 1.7 0.1
v 0.6 1.4 0.1
v 0.6 1.7 0.1
v -0.6 1.4 -0.1
v -0.6 1.7 -0.1
v -0.5 0.5 -0.1
v -0.5 0.6 -0.1
v -0.5 0.7 -0.1
v -0.5 0.8 -0.1
v -0.5 0.9 -0.1
v -0.5 1 -0.1
v -0.5 1.4 -0.1
v -0.5 1.5 -0.1
v -0.5 1.7 -0.1
v -0.4 0 -0.1
v -0.4 0.1 -0.1
v -0.4 0.3 -0.1
v -0.4 0.5 -0.1
v -0.4 0.6 -0.1
v -0.4 0.7 -0.1
v -0.4 0.8 -0.1
v -0.4 0.9 -0.1
v -0.4 1 -0.1
v -0.2 0 -0.1
v -0.2 0.1 -0.1
v -0.2 0.3 -0.1
v 0.2 0 -0.1
v 0.2 0.1 -0.1
v 0.2 0.3 -0.1
v 0.4 0 -0.1
v 0.4 0.1 -0.1
v 0.4 0.3 -0.1
v 0.4 0.5 -0.1
v 0.4 0.6 -0.1
v 0.4 0.7 -0.1
v 0.4 0.8 -0.1
v 0.4 0.9 -0.1
v 0.4 1 -0.1
v 0.5 0.5 -0.1
v 0.5 0.6 -0.1
v 0.5 0.7 -0.1
v 0.5 0.8 -0.1
v 0.5 0.9 -0.1
v 0.5 1 -0.1
v 0.5 1.4 -0.1
v 0.5 1.5 -0.1
v 0.5 1.7 -0.1
v 0.6 1.4 -0.1
v 0.6 1.7 -0.1
v -0.6 2 -0.3
v -0.6 2.1 -0.3
v -0.4 0.3 -0.3
v -0.4 0.4 -0.3
v -0.4 0.5 -0.3
v -0.4 0.6 -0.3
v -0.4 0.7 -0.3
v -0.4 0.8 -0.3
v -0.4 0.9 -0.3
v -0.4 1 -0.3
v -0.4 2 -0.3
v -0.4 2.1 -0.3
v -0.4 2.2 -0.3
v 0.4 0.3 -0.3
v 0.4 0.4 -0.3
v 0.4 0.5 -0.3
v 0.4 0.6 -0.3
v 0.4 0.7 -0.3
v 0.4 0.8 -0.3
v 0.4 0.9 -0.3
v 0.4 1 -0.3
v 0.4 2 -0.3
v 0.4 2.1 -0.3
v 0.4 2.2 -0.3
v 0.6 2 -0.3
v 0.6 2.1 -0.3
v -0.5 1.1 -0.4
v -0.5 1.4 -0.4
v -0.5 1.7 -0.4
v -0.4 1 -0.4
v -0.4 1.1 -0.4
v -0.4 1.3 -0.4
v -0.4 1.4 -0.4
v -0.3 1.2 -0.4
v -0.3 1.3 -0.4
v 0.3 1.2 -0.4
v 0.3 1.3 -0.4
v 0.4 1 -0.4
v 0.4 1.1 -0.4
v 0.4 1.3 -0.4
v 0.4 1.4 -0.4
v 0.5 1.1 -0.4
v 0.5 1.4 -0.4
v 0.5 1.7 -0.4
v -0.6 1.7 -0.5
v -0.6 2 -0.5
v -0.4 2 -0.5
v -0.4 2.1 -0.5
v 0.4 2 -0.5
v 0.4 2.1 -0.5
v 0.6 1.7 -0.5
v 0.6 2 -0.5
v -0.4 0 0.2
v -0.2 0 0.2
v 0.2 0 0.2
v 0.4 0 0.2
v -0.4 0 -0.1
v -0.2 0 -0.1
v 0.2 0 -0.1
v 0.4 0 -0.1
v -0.4 0.3 0.3
v 0.4 0.3 0.3
v -0.4 0.3 0.1
v -0.2 0.3 0.1
v 0.2 0.3 0.1
v 0.4 0.3 0.1
v -0.4 0.3 -0.1
v -0.2 0.3 -0.1
v 0.2 0.3 -0.1
v 0.4 0.3 -0.1
v -0.4 0.3 -0.3
v 0.4 0.3 -0.3
v -0.5 0.5 0.1
v -0.4 0.5 0.1
v 0.4 0.5 0.1
v 0.5 0.5 0.1
v -0.5 0.5 -0.1
v -0.4 0.5 -0.1
v 0.4 0.5 -0.1
v 0.5 0.5 -0.1
v -0.4 1 0.4
v 0.4 1 0.4
v -0.4 1 0.3
v 0.4 1 0.3
v -0.4 1 -0.3
v 0.4 1 -0.3
v -0.4 1 -0.4
v 0.4 1 -0.4
v -0.5 1.1 0.4
v -0.4 1.1 0.4
v 0.4 1.1 0.4
v 0.5 1.1 0.4
v -0.5 1.1 -0.4
v -0.4 1.1 -0.4
v 0.4 1.1 -0.4
v 0.5 1.1 -0.4
v -0.2 1.2 0.4
v -0.0999999 1.2 0.4
v 0.1 1.2 0.4
v 0.2 1.2 0.4
v -0.2 1.2 0.3
v -0.0999999 1.2 0.3
v 0.1 1.2 0.3
v 0.2 1.2 0.3
v -0.0999999 1.3 0.5
v 0.1 1.3 0.5
v -0.0999999 1.3 0.4
v 0.1 1.3 0.4
v -0.6 1.4 0.1
v -0.5 1.4 0.1
v 0.5 1.4 0.1
v 0.6 1.4 0.1
v -0.6 1.4 -0.1
v -0.5 1.4 -0.1
v 0.5 1.4 -0.1
v 0.6 1.4 -0.1
v -0.6 1.7 0.5
v 0.6 1.7 0.5
v -0.5 1.7 0.4
v -0.4 1.7 0.4
v -0.0999999 1.7 0.4
v 0.1 1.7 0.4
v 0.4 1.7 0.4
v 0.5 1.7 0.4
v -0.5 1.7 0.3
v 0.5 1.7 0.3
v -0.6 1.7 0.1
v -0.5 1.7 0.1
v 0.5 1.7 0.1
v 0.6 1.7 0.1
v -0.6 1.7 -0.1
v -0.5 1.7 -0.1
v 0.5 1.7 -0.1
v 0.6 1.7 -0.1
v -0.5 1.7 -0.4
v 0.5 1.7 -0.4
v -0.6 1.7 -0.5
v 0.6 1.7 -0.5
v -0.4 0.1 0.2
v -0.2 0.1 0.2
v 0.2 0.1 0.2
v 0.4 0.1 0.2
v -0.4 0.1 0.1
v -0.2 0.1 0.1
v 0.2 0.1 0.1
v 0.4 0.1 0.1
v -0.5 1 0.1
v -0.4 1 0.1
v 0.4 1 0.1
v 0.5 1 0.1
v -0.5 1 -0.1
v -0.4 1 -0.1
v 0.4 1 -0.1
v 0.5 1 -0.1
v -0.2 1.1 0.4
v -0.0999999 1.1 0.4
v 0.1 1.1 0.4
v 0.2 1.1 0.4
v -0.2 1.1 0.3
v -0.0999999 1.1 0.3
v 0.1 1.1 0.3
v 0.2 1.1 0.3
v -0.0999999 1.5 0.5
v 0.1 1.5 0.5
v -0.0999999 1.5 0.4
v 0.1 1.5 0.4
v -0.6 2 0.5
v -0.4 2 0.5
v 0.4 2 0.5
v 0.6 2 0.5
v -0.6 2 0.3
v -0.4 2 0.3
v 0.4 2 0.3
v 0.6 2 0.3
v -0.6 2 -0.3
v -0.4 2 -0.3
v 0.4 2 -0.3
v 0.6 2 -0.3
v -0.6 2 -0.5
v -0.4 2 -0.5
v 0.4 2 -0.5
v 0.6 2 -0.5
v -0.4 2.1 0.5
v 0.4 2.1 0.5
v -0.6 2.1 0.3
v -0.4 2.1 0.3
v 0.4 2.1 0.3
v 0.6 2.1 0.3
v -0.6 2.1 -0.3
v -0.4 2.1 -0.3
v 0.4 2.1 -0.3
v 0.6 2.1 -0.3
v -0.4 2.1 -0.5
v 0.4 2.1 -0.5
v -0.4 2.2 0.3
v 0.4 2.2 0.3
v -0.4 2.2 -0.3
v 0.4 2.2 -0.3

# faces
f 4/1/1 2/1/1 1/1/1
f 5/1/1 2/1/1 4/1/1
f 7/6/1 4/6/1 3/6/1
f 7/6/1 6/6/1 5/6/1
f 7/6/1 5/6/1 4/6/1
f 8/6/1 6/6/1 7/6/1
f 9/6/1 6/6/1 8/6/1
f 10/6/1 6/6/1 9/6/1
f 11/6/1 9/6/1 8/6/1
f 12/6/1 9/6/1 11/6/1
f 15/1/1 14/1/1 13/1/1
f 16/1/1 14/1/1 15/1/1
f 17/2/1 16/2/1 15/2/1
f 18/2/1 16/2/1 17/2/1
f 19/5/1 18/5/1 17/5/1
f 20/5/1 18/5/1 19/5/1
f 21/2/1 20/2/1 19/2/1
f 22/2/1 20/2/1 21/2/1
f 23/5/1 22/5/1 21/5/1
f 24/5/1 22/5/1 23/5/1
f 27/1/1 26/1/1 25/1/1
f 28/1/1 26/1/1 27/1/1
f 29/1/1 26/1/1 28/1/1
f 30/1/1 26/1/1 29/1/1
f 31/1/1 27/1/1 25/1/1
f 32/1/1 27/1/1 31/1/1
f 33/1/1 29/1/1 28/1/1
f 34/6/1 30/6/1 29/6/1
f 34/1/1 29/1/1 33/1/1
f 35/1/1 31/1/1 25/1/1
f 36/6/1 32/6/1 31/6/1
f 36/1/1 31/1/1 35/1/1
f 37/1/1 35/1/1 25/1/1
f 38/6/1 36/6/1 35/6/1
f 38/1/1 35/1/1 37/1/1
f 39/6/1 32/6/1 36/6/1
f 39/6/1 36/6/1 38/6/1
f 40/6/1 34/6/1 33/6/1
f 41/6/1 30/6/1 34/6/1
f 41/6/1 34/6/1 40/6/1
f 44/1/1 43/1/1 42/1/1
f 45/1/1 43/1/1 44/1/1
f 46/1/1 43/1/1 45/1/1
f 48/5/1 46/5/1 45/5/1
f 49/5/1 46/5/1 48/5/1
f 51/5/1 49/5/1 48/5/1
f 51/5/1 50/5/1 49/5/1
f 51/5/1 48/5/1 47/5/1
f 52/5/1 50/5/1 51/5/1
f 53/2/1 52/2/1 51/2/1
f 54/2/1 52/2/1 53/2/1
f 55/2/1 52/2/1 54/2/1
f 56/2/1 52/2/1 55/2/1
f 57/5/1 54/5/1 53/5/1
f 58/5/1 54/5/1 57/5/1
f 59/5/1 56/5/1 55/5/1
f 60/5/1 56/5/1 59/5/1
f 61/2/1 58/2/1 57/2/1
f 62/2/1 58/2/1 61/2/1
f 63/2/1 60/2/1 59/2/1
f 64/2/1 60/2/1 63/2/1
f 65/5/1 62/5/1 61/5/1
f 66/5/1 62/5/1 65/5/1
f 67/5/1 64/5/1 63/5/1
f 68/5/1 64/5/1 67/5/1
f 69/2/1 66/2/1 65/2/1
f 70/2/1 66/2/1 69/2/1
f 71/2/1 68/2/1 67/2/1
f 72/2/1 68/2/1 71/2/1
f 74/5/1 70/5/1 69/5/1
f 75/5/1 70/5/1 74/5/1
f 76/5/1 72/5/1 71/5/1
f 77/5/1 72/5/1 76/5/1
f 79/1/1 77/1/1 76/1/1
f 79/1/1 78/1/1 77/1/1
f 79/1/1 76/1/1 75/1/1
f 79/1/1 74/1/1 73/1/1
f 79/1/1 75/1/1 74/1/1
f 80/1/1 78/1/1 79/1/1
f 85/6/1 82/6/1 81/6/1
f 86/6/1 82/6/1 85/6/1
f 87/6/1 84/6/1 83/6/1
f 88/6/1 84/6/1 87/6/1
f 89/6/1 87/6/1 86/6/1
f 90/6/1 87/6/1 89/6/1
f 93/5/1 92/5/1 91/5/1
f 94/5/1 92/5/1 93/5/1
f 97/1/1 96/1/1 95/1/1
f 98/1/1 97/1/1 95/1/1
f 99/1/1 97/1/1 98/1/1
f 102/1/1 101/1/1 100/1/1
f 103/1/1 101/1/1 102/1/1
f 104/1/1 101/1/1 103/1/1
f 105/5/1 104/5/1 103/5/1
f 106/5/1 104/5/1 105/5/1
f 109/1/1 108/1/1 107/1/1
f 110/1/1 108/1/1 109/1/1
f 111/1/2 112/1/2 113/1/2
f 113/1/2 112/1/2 114/1/2
f 114/1/2 112/1/2 115/1/2
f 114/5/2 115/5/2 116/5/2
f 116/5/2 115/5/2 117/5/2
f 118/1/2 119/1/2 120/1/2
f 120/1/2 119/1/2 121/1/2
f 122/5/2 123/5/2 124/5/2
f 124/5/2 123/5/2 125/5/2
f 126/1/2 127/1/2 128/1/2
f 126/1/2 128/1/2 129/1/2
f 129/1/2 128/1/2 130/1/2
f 131/1/2 132/1/2 133/1/2
f 133/1/2 132/1/2 134/1/2
f 134/1/2 132/1/2 135/1/2
f 134/5/2 135/5/2 137/5/2
f 137/5/2 135/5/2 138/5/2
f 137/5/2 138/5/2 140/5/2
f 138/5/2 139/5/2 140/5/2
f 136/5/2 137/5/2 140/5/2
f 140/5/2 139/5/2 141/5/2
f 140/2/2 141/2/2 142/2/2
f 142/2/2 141/2/2 143/2/2
f 143/2/2 141/2/2 144/2/2
f 144/2/2 141/2/2 145/2/2
f 142/5/2 143/5/2 146/5/2
f 146/5/2 143/5/2 147/5/2
f 144/5/2 145/5/2 148/5/2
f 148/5/2 145/5/2 149/5/2
f 146/2/2 147/2/2 150/2/2
f 150/2/2 147/2/2 151/2/2
f 148/2/2 149/2/2 152/2/2
f 152/2/2 149/2/2 153/2/2
f 150/5/2 151/5/2 154/5/2
f 154/5/2 151/5/2 155/5/2
f 152/5/2 153/5/2 156/5/2
f 156/5/2 153/5/2 157/5/2
f 154/2/2 155/2/2 158/2/2
f 158/2/2 155/2/2 159/2/2
f 156/2/2 157/2/2 160/2/2
f 160/2/2 157/2/2 161/2/2
f 158/5/2 159/5/2 163/5/2
f 163/5/2 159/5/2 164/5/2
f 160/5/2 161/5/2 165/5/2
f 165/5/2 161/5/2 166/5/2
f 165/1/2 166/1/2 168/1/2
f 166/1/2 167/1/2 168/1/2
f 164/1/2 165/1/2 168/1/2
f 162/1/2 163/1/2 168/1/2
f 163/1/2 164/1/2 168/1/2
f 168/1/2 167/1/2 169/1/2
f 170/6/2 171/6/2 174/6/2
f 174/6/2 171/6/2 175/6/2
f 172/6/2 173/6/2 176/6/2
f 176/6/2 173/6/2 177/6/2
f 175/6/2 176/6/2 178/6/2
f 178/6/2 176/6/2 179/6/2
f 180/1/2 181/1/2 182/1/2
f 182/1/2 181/1/2 183/1/2
f 182/2/2 183/2/2 184/2/2
f 184/2/2 183/2/2 185/2/2
f 184/5/2 185/5/2 186/5/2
f 186/5/2 185/5/2 187/5/2
f 186/2/2 187/2/2 188/2/2
f 188/2/2 187/2/2 189/2/2
f 188/5/2 189/5/2 190/5/2
f 190/5/2 189/5/2 191/5/2
f 192/1/2 193/1/2 194/1/2
f 194/1/2 193/1/2 195/1/2
f 195/1/2 193/1/2 196/1/2
f 196/1/2 193/1/2 197/1/2
f 192/1/2 194/1/2 198/1/2
f 198/1/2 194/1/2 199/1/2
f 195/1/2 196/1/2 200/1/2
f 196/6/2 197/6/2 201/6/2
f 200/1/2 196/1/2 201/1/2
f 192/1/2 198/1/2 202/1/2
f 198/6/2 199/6/2 203/6/2
f 202/1/2 198/1/2 203/1/2
f 192/1/2 202/1/2 204/1/2
f 202/6/2 203/6/2 205/6/2
f 204/1/2 202/1/2 205/1/2
f 203/6/2 199/6/2 206/6/2
f 205/6/2 203/6/2 206/6/2
f 200/6/2 201/6/2 207/6/2
f 201/6/2 197/6/2 208/6/2
f 207/6/2 201/6/2 208/6/2
f 209/1/2 210/1/2 212/1/2
f 212/1/2 210/1/2 213/1/2
f 211/6/2 212/6/2 215/6/2
f 213/6/2 214/6/2 215/6/2
f 212/6/2 213/6/2 215/6/2
f 215/6/2 214/6/2 216/6/2
f 216/6/2 214/6/2 217/6/2
f 217/6/2 214/6/2 218/6/2
f 216/6/2 217/6/2 219/6/2
f 219/6/2 217/6/2 220/6/2
f 223/6/3 222/6/3 221/6/3
f 227/1/3 226/1/3 225/1/3
f 228/1/3 226/1/3 227/1/3
f 229/6/3 223/6/3 221/6/3
f 229/6/3 224/6/3 223/6/3
f 230/6/3 224/6/3 229/6/3
f 231/6/3 229/6/3 221/6/3
f 232/6/3 229/6/3 231/6/3
f 236/1/3 234/1/3 233/1/3
f 237/1/3 234/1/3 236/1/3
f 238/1/3 234/1/3 237/1/3
f 239/1/3 234/1/3 238/1/3
f 240/6/3 238/6/3 237/6/3
f 240/5/3 239/5/3 238/5/3
f 241/5/3 239/5/3 240/5/3
f 242/1/3 236/1/3 235/1/3
f 242/1/3 237/1/3 236/1/3
f 243/1/3 237/1/3 242/1/3
f 244/3/3 241/3/3 240/3/3
f 244/6/3 240/6/3 237/6/3
f 245/5/3 239/5/3 241/5/3
f 245/3/3 241/3/3 244/3/3
f 246/1/3 242/1/3 235/1/3
f 247/1/3 237/1/3 243/1/3
f 248/1/3 237/1/3 247/1/3
f 249/6/3 244/6/3 237/6/3
f 249/1/3 237/1/3 248/1/3
f 250/5/3 245/5/3 244/5/3
f 250/6/3 244/6/3 249/6/3
f 251/5/3 239/5/3 245/5/3
f 251/5/3 245/5/3 250/5/3
f 252/1/3 246/1/3 235/1/3
f 252/5/3 247/5/3 246/5/3
f 253/1/3 248/1/3 247/1/3
f 253/5/3 247/5/3 252/5/3
f 254/1/3 248/1/3 253/1/3
f 256/1/3 251/1/3 250/1/3
f 257/1/3 251/1/3 256/1/3
f 258/1/3 252/1/3 235/1/3
f 259/1/3 255/1/3 254/1/3
f 259/1/3 254/1/3 253/1/3
f 260/5/3 257/5/3 256/5/3
f 260/6/3 256/6/3 255/6/3
f 261/5/3 257/5/3 260/5/3
f 262/6/3 260/6/3 255/6/3
f 262/3/3 261/3/3 260/3/3
f 263/5/3 257/5/3 261/5/3
f 263/3/3 261/3/3 262/3/3
f 264/1/3 258/1/3 235/1/3
f 264/1/3 259/1/3 258/1/3
f 265/1/3 259/1/3 264/1/3
f 266/1/3 255/1/3 259/1/3
f 266/1/3 259/1/3 265/1/3
f 266/6/3 262/6/3 255/6/3
f 267/5/3 263/5/3 262/5/3
f 267/6/3 262/6/3 266/6/3
f 268/5/3 257/5/3 263/5/3
f 268/5/3 263/5/3 267/5/3
f 269/1/3 267/1/3 266/1/3
f 269/1/3 266/1/3 265/1/3
f 269/1/3 268/1/3 267/1/3
f 270/1/3 268/1/3 269/1/3
f 281/6/3 272/6/3 271/6/3
f 282/6/3 272/6/3 281/6/3
f 286/1/3 285/1/3 284/1/3
f 287/1/3 285/1/3 286/1/3
f 290/1/3 289/1/3 288/1/3
f 291/1/3 289/1/3 290/1/3
f 292/5/3 274/5/3 273/5/3
f 293/2/3 275/2/3 274/2/3
f 293/5/3 274/5/3 292/5/3
f 294/5/3 276/5/3 275/5/3
f 294/2/3 275/2/3 293/2/3
f 295/2/3 277/2/3 276/2/3
f 295/5/3 276/5/3 294/5/3
f 296/5/3 278/5/3 277/5/3
f 296/2/3 277/2/3 295/2/3
f 297/2/3 279/2/3 278/2/3
f 297/5/3 278/5/3 296/5/3
f 298/5/3 280/5/3 279/5/3
f 298/2/3 279/2/3 297/2/3
f 299/5/3 280/5/3 298/5/3
f 301/6/3 283/6/3 282/6/3
f 302/6/3 283/6/3 301/6/3
f 303/6/3 301/6/3 300/6/3
f 304/6/3 301/6/3 303/6/3
f 307/1/3 306/1/3 305/1/3
f 308/1/3 306/1/3 307/1/3
f 311/1/3 310/1/3 309/1/3
f 312/1/3 310/1/3 311/1/3
f 321/1/3 314/1/3 313/1/3
f 322/1/3 314/1/3 321/1/3
f 323/1/3 314/1/3 322/1/3
f 326/1/3 316/1/3 315/1/3
f 327/2/3 317/2/3 316/2/3
f 327/1/3 316/1/3 326/1/3
f 328/5/3 318/5/3 317/5/3
f 328/2/3 317/2/3 327/2/3
f 329/2/3 319/2/3 318/2/3
f 329/5/3 318/5/3 328/5/3
f 330/5/3 320/5/3 319/5/3
f 330/2/3 319/2/3 329/2/3
f 331/5/3 320/5/3 330/5/3
f 332/5/3 325/5/3 324/5/3
f 333/5/3 325/5/3 332/5/3
f 336/5/3 335/5/3 334/5/3
f 337/5/3 335/5/3 336/5/3
f 344/1/3 339/1/3 338/1/3
f 345/2/3 340/2/3 339/2/3
f 345/1/3 339/1/3 344/1/3
f 346/5/3 341/5/3 340/5/3
f 346/2/3 340/2/3 345/2/3
f 347/2/3 342/2/3 341/2/3
f 347/5/3 341/5/3 346/5/3
f 348/5/3 343/5/3 342/5/3
f 348/2/3 342/2/3 347/2/3
f 349/5/3 343/5/3 348/5/3
f 353/1/3 352/1/3 351/1/3
f 353/1/3 351/1/3 350/1/3
f 354/1/3 352/1/3 353/1/3
f 355/1/4 356/1/4 363/1/4
f 363/1/4 356/1/4 364/1/4
f 364/1/4 356/1/4 365/1/4
f 357/1/4 358/1/4 369/1/4
f 358/2/4 359/2/4 370/2/4
f 369/1/4 358/1/4 370/1/4
f 359/5/4 360/5/4 371/5/4
f 370/2/4 359/2/4 371/2/4
f 360/2/4 361/2/4 372/2/4
f 371/5/4 360/5/4 372/5/4
f 361/5/4 362/5/4 373/5/4
f 372/2/4 361/2/4 373/2/4
f 373/5/4 362/5/4 374/5/4
f 366/1/4 367/1/4 375/1/4
f 367/5/4 368/5/4 376/5/4
f 375/1/4 367/1/4 376/1/4
f 376/5/4 368/5/4 377/5/4
f 378/1/4 379/1/4 381/1/4
f 379/5/4 380/5/4 382/5/4
f 381/1/4 379/1/4 382/1/4
f 382/5/4 380/5/4 383/5/4
f 384/1/4 385/1/4 390/1/4
f 385/2/4 386/2/4 391/2/4
f 390/1/4 385/1/4 391/1/4
f 386/5/4 387/5/4 392/5/4
f 391/2/4 386/2/4 392/2/4
f 387/2/4 388/2/4 393/2/4
f 392/5/4 387/5/4 393/5/4
f 388/5/4 389/5/4 394/5/4
f 393/2/4 388/2/4 394/2/4
f 394/5/4 389/5/4 395/5/4
f 397/1/4 398/1/4 399/1/4
f 396/1/4 397/1/4 399/1/4
f 399/1/4 398/1/4 400/1/4
f 401/6/4 402/6/4 411/6/4
f 411/6/4 402/6/4 412/6/4
f 403/5/4 404/5/4 414/5/4
f 404/2/4 405/2/4 415/2/4
f 414/5/4 404/5/4 415/5/4
f 405/5/4 406/5/4 416/5/4
f 415/2/4 405/2/4 416/2/4
f 406/2/4 407/2/4 417/2/4
f 416/5/4 406/5/4 417/5/4
f 407/5/4 408/5/4 418/5/4
f 417/2/4 407/2/4 418/2/4
f 408/2/4 409/2/4 419/2/4
f 418/5/4 408/5/4 419/5/4
f 409/5/4 410/5/4 420/5/4
f 419/2/4 409/2/4 420/2/4
f 420/5/4 410/5/4 421/5/4
f 412/6/4 413/6/4 423/6/4
f 423/6/4 413/6/4 424/6/4
f 422/6/4 423/6/4 425/6/4
f 425/6/4 423/6/4 426/6/4
f 427/1/4 428/1/4 431/1/4
f 431/1/4 428/1/4 432/1/4
f 428/6/4 429/6/4 433/6/4
f 432/1/4 428/1/4 433/1/4
f 431/1/4 432/1/4 434/1/4
f 430/1/4 431/1/4 434/1/4
f 432/6/4 433/6/4 435/6/4
f 434/1/4 432/1/4 435/1/4
f 430/1/4 434/1/4 436/1/4
f 434/6/4 435/6/4 436/6/4
f 435/6/4 433/6/4 437/6/4
f 436/6/4 435/6/4 437/6/4
f 430/1/4 436/1/4 438/1/4
f 436/1/4 437/1/4 438/1/4
f 438/1/4 437/1/4 439/1/4
f 437/6/4 433/6/4 440/6/4
f 439/1/4 437/1/4 440/1/4
f 433/6/4 429/6/4 441/6/4
f 440/6/4 433/6/4 441/6/4
f 439/1/4 440/1/4 442/1/4
f 440/1/4 441/1/4 442/1/4
f 441/6/4 429/6/4 443/6/4
f 442/1/4 441/1/4 443/1/4
f 443/6/4 429/6/4 444/6/4
f 445/6/4 446/6/4 447/6/4
f 445/6/4 447/6/4 449/6/4
f 447/6/4 448/6/4 449/6/4
f 449/6/4 448/6/4 450/6/4
f 445/6/4 449/6/4 451/6/4
f 451/6/4 449/6/4 452/6/4
f 457/1/5 454/1/5 453/1/5
f 458/1/5 454/1/5 457/1/5
f 459/1/5 456/1/5 455/1/5
f 460/1/5 456/1/5 459/1/5
f 463/5/5 462/5/5 461/5/5
f 464/5/5 462/5/5 463/5/5
f 465/5/5 462/5/5 464/5/5
f 466/5/5 462/5/5 465/5/5
f 468/5/5 465/5/5 464/5/5
f 469/5/5 465/5/5 468/5/5
f 471/5/5 468/5/5 467/5/5
f 471/5/5 470/5/5 469/5/5
f 471/5/5 469/5/5 468/5/5
f 472/5/5 470/5/5 471/5/5
f 477/1/5 474/1/5 473/1/5
f 478/1/5 474/1/5 477/1/5
f 479/1/5 476/1/5 475/1/5
f 480/1/5 476/1/5 479/1/5
f 483/1/5 482/1/5 481/1/5
f 484/1/5 482/1/5 483/1/5
f 487/1/5 486/1/5 485/1/5
f 488/1/5 486/1/5 487/1/5
f 493/1/5 490/1/5 489/1/5
f 494/1/5 490/1/5 493/1/5
f 495/1/5 492/1/5 491/1/5
f 496/1/5 492/1/5 495/1/5
f 501/1/5 498/1/5 497/1/5
f 502/1/5 498/1/5 501/1/5
f 503/1/5 500/1/5 499/1/5
f 504/1/5 500/1/5 503/1/5
f 507/1/5 506/1/5 505/1/5
f 508/1/5 506/1/5 507/1/5
f 513/1/5 510/1/5 509/1/5
f 514/1/5 510/1/5 513/1/5
f 515/1/5 512/1/5 511/1/5
f 516/1/5 512/1/5 515/1/5
f 519/6/5 518/6/5 517/6/5
f 520/6/5 518/6/5 519/6/5
f 521/6/5 518/6/5 520/6/5
f 522/6/5 518/6/5 521/6/5
f 523/6/5 518/6/5 522/6/5
f 524/6/5 518/6/5 523/6/5
f 525/6/5 519/6/5 517/6/5
f 526/6/5 518/6/5 524/6/5
f 527/6/5 525/6/5 517/6/5
f 528/6/5 525/6/5 527/6/5
f 529/6/5 518/6/5 526/6/5
f 530/6/5 518/6/5 529/6/5
f 535/6/5 532/6/5 531/6/5
f 536/6/5 534/6/5 533/6/5
f 537/6/5 535/6/5 531/6/5
f 537/6/5 536/6/5 535/6/5
f 538/6/5 534/6/5 536/6/5
f 538/6/5 536/6/5 537/6/5
f 539/1/6 540/1/6 543/1/6
f 543/1/6 540/1/6 544/1/6
f 541/1/6 542/1/6 545/1/6
f 545/1/6 542/1/6 546/1/6
f 547/5/6 548/5/6 551/5/6
f 551/5/6 548/5/6 552/5/6
f 549/5/6 550/5/6 553/5/6
f 553/5/6 550/5/6 554/5/6
f 555/1/6 556/1/6 559/1/6
f 559/1/6 556/1/6 560/1/6
f 557/1/6 558/1/6 561/1/6
f 561/1/6 558/1/6 562/1/6
f 563/1/6 564/1/6 565/1/6
f 565/1/6 564/1/6 566/1/6
f 567/6/6 568/6/6 571/6/6
f 571/6/6 568/6/6 572/6/6
f 569/6/6 570/6/6 573/6/6
f 573/6/6 570/6/6 574/6/6
f 575/6/6 576/6/6 579/6/6
f 579/6/6 576/6/6 580/6/6
f 577/6/6 578/6/6 581/6/6
f 581/6/6 578/6/6 582/6/6
f 583/6/6 584/6/6 586/6/6
f 586/6/6 584/6/6 587/6/6
f 585/6/6 586/6/6 589/6/6
f 589/6/6 586/6/6 590/6/6
f 587/6/6 588/6/6 591/6/6
f 591/6/6 588/6/6 592/6/6
f 590/6/6 591/6/6 593/6/6
f 593/6/6 591/6/6 594/6/6
f 595/6/6 596/6/6 597/6/6
f 597/6/6 596/6/6 598/6/6
