# MagicaVoxel @ Ephtracy

# group
o 

# material
mtllib store_brown.mtl
usemtl palette

# normals
vn -1 0 0
vn 1 0 0
vn 0 0 1
vn 0 0 -1
vn 0 -1 0
vn 0 1 0

# texcoords
vt 0.970703 0.5
vt 0.974609 0.5
vt 0.978516 0.5
vt 0.982422 0.5

# verts
v -8 10 8
v -8 10 -8
v -8 12 8
v -8 12 -8
v -7.2 0 7.2
v -7.2 0 -7.2
v -7.2 10 7.2
v -7.2 10 -7.2
v -5.6 2.8 7.6
v -5.6 2.8 7.2
v -5.6 3.2 7.6
v -5.6 3.2 7.2
v 1.2 3.2 7.2
v 1.2 3.2 6.8
v 1.2 8 7.2
v 1.2 8 6.8
v 3.2 11.6 7.2
v 3.2 11.6 6.8
v 3.2 12 7.2
v 3.2 12 6.8
v 3.6 11.6 6.8
v 3.6 11.6 6.4
v 3.6 12 6.8
v 3.6 12 6.4
v 4 11.6 6.4
v 4 11.6 6
v 4 12 6.4
v 4 12 6
v 4.4 11.6 6
v 4.4 11.6 5.6
v 4.4 12 6
v 4.4 12 5.6
v 4.8 11.6 5.6
v 4.8 11.6 5.2
v 4.8 12 5.6
v 4.8 12 5.2
v 5.2 11.6 5.2
v 5.2 11.6 4.8
v 5.2 12 5.2
v 5.2 12 4.8
v 5.6 11.6 4.8
v 5.6 11.6 4.4
v 5.6 12 4.8
v 5.6 12 4.4
v 6 11.6 4.4
v 6 11.6 4
v 6 12 4.4
v 6 12 4
v 6.4 11.6 4
v 6.4 11.6 3.6
v 6.4 12 4
v 6.4 12 3.6
v 6.8 11.6 3.6
v 6.8 11.6 3.2
v 6.8 12 3.6
v 6.8 12 3.2
v 7.2 3.8 -4.1
v 7.2 3.8 -4.3
v 7.2 4.5 -4.1
v 7.2 4.5 -4.3
v 7.2 11.6 3.2
v 7.2 11.6 -7.2
v 7.2 12 3.2
v 7.2 12 -7.2
v -7.2 11.6 7.2
v -7.2 11.6 -7.2
v -7.2 12 7.2
v -7.2 12 -7.2
v -5.2 3.2 7.2
v -5.2 3.2 6.8
v -5.2 8 7.2
v -5.2 8 6.8
v 1.6 2.8 7.6
v 1.6 2.8 7.2
v 1.6 3.2 7.6
v 1.6 3.2 7.2
v 3.2 0 7.2
v 3.2 0 6.8
v 3.2 10 8
v 3.2 10 7.6
v 3.2 10 7.2
v 3.2 10 6.8
v 3.2 12 8
v 3.2 12 7.6
v 3.6 0 6.8
v 3.6 0 6.4
v 3.6 10 7.6
v 3.6 10 7.2
v 3.6 10 6.8
v 3.6 10 6.4
v 3.6 12 7.6
v 3.6 12 7.2
v 4 0 6.4
v 4 0 6
v 4 10 7.2
v 4 10 6.8
v 4 10 6.4
v 4 10 6
v 4 12 7.2
v 4 12 6.8
v 4.4 0 6
v 4.4 0 5.6
v 4.4 10 6.8
v 4.4 10 6.4
v 4.4 10 6
v 4.4 10 5.6
v 4.4 12 6.8
v 4.4 12 6.4
v 4.8 0 5.6
v 4.8 0 5.2
v 4.8 10 6.4
v 4.8 10 6
v 4.8 10 5.6
v 4.8 10 5.2
v 4.8 12 6.4
v 4.8 12 6
v 5.2 0 5.2
v 5.2 0 4.8
v 5.2 10 6
v 5.2 10 5.6
v 5.2 10 5.2
v 5.2 10 4.8
v 5.2 12 6
v 5.2 12 5.6
v 5.6 0 4.8
v 5.6 0 4.4
v 5.6 10 5.6
v 5.6 10 5.2
v 5.6 10 4.8
v 5.6 10 4.4
v 5.6 12 5.6
v 5.6 12 5.2
v 6 0 4.4
v 6 0 4
v 6 10 5.2
v 6 10 4.8
v 6 10 4.4
v 6 10 4
v 6 12 5.2
v 6 12 4.8
v 6.4 0 4
v 6.4 0 3.6
v 6.4 10 4.8
v 6.4 10 4.4
v 6.4 10 4
v 6.4 10 3.6
v 6.4 12 4.8
v 6.4 12 4.4
v 6.8 0 3.6
v 6.8 0 3.2
v 6.8 0 0
v 6.8 0 -4.4
v 6.8 0.8 -0.4
v 6.8 0.8 -4
v 6.8 3.6 -4.1
v 6.8 3.6 -4.3
v 6.8 3.8 -4.1
v 6.8 3.8 -4.3
v 6.8 4.5 -4.1
v 6.8 4.5 -4.3
v 6.8 4.7 -4.1
v 6.8 4.7 -4.3
v 6.8 6 -0.4
v 6.8 6 -4
v 6.8 6.4 -0.4
v 6.8 6.4 -4
v 6.8 7.6 -0.4
v 6.8 7.6 -4
v 6.8 8 0
v 6.8 8 -4.4
v 6.8 10 4.4
v 6.8 10 4
v 6.8 10 3.6
v 6.8 10 3.2
v 6.8 12 4.4
v 6.8 12 4
v 7.2 0 3.2
v 7.2 0 0
v 7.2 0 -4.4
v 7.2 0 -7.2
v 7.2 8 0
v 7.2 8 -4.4
v 7.2 10 4
v 7.2 10 3.6
v 7.2 10 3.2
v 7.2 10 -7.2
v 7.2 12 4
v 7.2 12 3.6
v 7.4 3.6 -4.1
v 7.4 3.6 -4.3
v 7.4 4.7 -4.1
v 7.4 4.7 -4.3
v 7.6 10 3.6
v 7.6 10 3.2
v 7.6 12 3.6
v 7.6 12 3.2
v 8 10 3.2
v 8 10 -8
v 8 12 3.2
v 8 12 -8
v -8 10 8
v -8 12 8
v 3.2 10 8
v 3.2 12 8
v -5.6 2.8 7.6
v -5.6 3.2 7.6
v 1.6 2.8 7.6
v 1.6 3.2 7.6
v 3.2 10 7.6
v 3.2 12 7.6
v 3.6 10 7.6
v 3.6 12 7.6
v -7.2 0 7.2
v -7.2 10 7.2
v -5.6 2.8 7.2
v -5.6 3.2 7.2
v -5.6 8.4 7.2
v -5.2 3.2 7.2
v -5.2 8 7.2
v 1.2 3.2 7.2
v 1.2 8 7.2
v 1.6 2.8 7.2
v 1.6 3.2 7.2
v 1.6 8.4 7.2
v 3.2 0 7.2
v 3.2 10 7.2
v 3.6 10 7.2
v 3.6 12 7.2
v 4 10 7.2
v 4 12 7.2
v -5.2 3.2 6.8
v -5.2 8 6.8
v 1.2 3.2 6.8
v 1.2 8 6.8
v 3.2 0 6.8
v 3.2 10 6.8
v 3.6 0 6.8
v 3.6 10 6.8
v 4 10 6.8
v 4 12 6.8
v 4.4 10 6.8
v 4.4 12 6.8
v 3.6 0 6.4
v 3.6 10 6.4
v 4 0 6.4
v 4 10 6.4
v 4.4 10 6.4
v 4.4 12 6.4
v 4.8 10 6.4
v 4.8 12 6.4
v 4 0 6
v 4 10 6
v 4.4 0 6
v 4.4 10 6
v 4.8 10 6
v 4.8 12 6
v 5.2 10 6
v 5.2 12 6
v 4.4 0 5.6
v 4.4 10 5.6
v 4.8 0 5.6
v 4.8 10 5.6
v 5.2 10 5.6
v 5.2 12 5.6
v 5.6 10 5.6
v 5.6 12 5.6
v 4.8 0 5.2
v 4.8 10 5.2
v 5.2 0 5.2
v 5.2 10 5.2
v 5.6 10 5.2
v 5.6 12 5.2
v 6 10 5.2
v 6 12 5.2
v 5.2 0 4.8
v 5.2 10 4.8
v 5.6 0 4.8
v 5.6 10 4.8
v 6 10 4.8
v 6 12 4.8
v 6.4 10 4.8
v 6.4 12 4.8
v 5.6 0 4.4
v 5.6 10 4.4
v 6 0 4.4
v 6 10 4.4
v 6.4 10 4.4
v 6.4 12 4.4
v 6.8 10 4.4
v 6.8 12 4.4
v 6 0 4
v 6 10 4
v 6.4 0 4
v 6.4 10 4
v 6.8 10 4
v 6.8 12 4
v 7.2 10 4
v 7.2 12 4
v 6.4 0 3.6
v 6.4 10 3.6
v 6.8 0 3.6
v 6.8 10 3.6
v 7.2 10 3.6
v 7.2 12 3.6
v 7.6 10 3.6
v 7.6 12 3.6
v 6.8 0 3.2
v 6.8 10 3.2
v 7.2 0 3.2
v 7.2 10 3.2
v 7.6 10 3.2
v 7.6 12 3.2
v 8 10 3.2
v 8 12 3.2
v 6.8 3.6 -4.1
v 6.8 3.8 -4.1
v 6.8 4.5 -4.1
v 6.8 4.7 -4.1
v 7.2 3.8 -4.1
v 7.2 4.5 -4.1
v 7.4 3.6 -4.1
v 7.4 4.7 -4.1
v 6.8 0 -4.4
v 6.8 8 -4.4
v 7.2 0 -4.4
v 7.2 8 -4.4
v -7.2 11.6 -7.2
v -7.2 12 -7.2
v 7.2 11.6 -7.2
v 7.2 12 -7.2
v -7.2 11.6 7.2
v -7.2 12 7.2
v 3.2 11.6 7.2
v 3.2 12 7.2
v 3.2 11.6 6.8
v 3.2 12 6.8
v 3.6 11.6 6.8
v 3.6 12 6.8
v 3.6 11.6 6.4
v 3.6 12 6.4
v 4 11.6 6.4
v 4 12 6.4
v 4 11.6 6
v 4 12 6
v 4.4 11.6 6
v 4.4 12 6
v 4.4 11.6 5.6
v 4.4 12 5.6
v 4.8 11.6 5.6
v 4.8 12 5.6
v 4.8 11.6 5.2
v 4.8 12 5.2
v 5.2 11.6 5.2
v 5.2 12 5.2
v 5.2 11.6 4.8
v 5.2 12 4.8
v 5.6 11.6 4.8
v 5.6 12 4.8
v 5.6 11.6 4.4
v 5.6 12 4.4
v 6 11.6 4.4
v 6 12 4.4
v 6 11.6 4
v 6 12 4
v 6.4 11.6 4
v 6.4 12 4
v 6.4 11.6 3.6
v 6.4 12 3.6
v 6.8 11.6 3.6
v 6.8 12 3.6
v 6.8 11.6 3.2
v 6.8 12 3.2
v 7.2 11.6 3.2
v 7.2 12 3.2
v 6.8 0 0
v 6.8 8 0
v 7.2 0 0
v 7.2 8 0
v 6.8 3.6 -4.3
v 6.8 3.8 -4.3
v 6.8 4.5 -4.3
v 6.8 4.7 -4.3
v 7.2 3.8 -4.3
v 7.2 4.5 -4.3
v 7.4 3.6 -4.3
v 7.4 4.7 -4.3
v -7.2 0 -7.2
v -7.2 10 -7.2
v 7.2 0 -7.2
v 7.2 10 -7.2
v -8 10 -8
v -8 12 -8
v 8 10 -8
v 8 12 -8
v -7.2 0 7.2
v 3.2 0 7.2
v 3.2 0 6.8
v 3.6 0 6.8
v 3.6 0 6.4
v 4 0 6.4
v 4 0 6
v 4.4 0 6
v 4.4 0 5.6
v 4.8 0 5.6
v 4.8 0 5.2
v 5.2 0 5.2
v 5.2 0 4.8
v 5.6 0 4.8
v 5.6 0 4.4
v 6 0 4.4
v 6 0 4
v 6.4 0 4
v 6.4 0 3.6
v 6.8 0 3.6
v 6.8 0 3.2
v 7.2 0 3.2
v 6.4 0 0
v 6.8 0 0
v 7.2 0 0
v 6.4 0 -4.4
v 6.8 0 -4.4
v 7.2 0 -4.4
v -7.2 0 -7.2
v 7.2 0 -7.2
v -5.6 2.8 7.6
v 1.6 2.8 7.6
v -5.6 2.8 7.2
v 1.6 2.8 7.2
v 6.8 3.6 -4.1
v 7.4 3.6 -4.1
v 6.8 3.6 -4.3
v 7.4 3.6 -4.3
v 6.8 4.5 -4.1
v 7.2 4.5 -4.1
v 6.8 4.5 -4.3
v 7.2 4.5 -4.3
v -5.2 8 7.2
v 1.2 8 7.2
v -5.2 8 6.8
v 1.2 8 6.8
v 6.8 8 0
v 7.2 8 0
v 6.8 8 -4.4
v 7.2 8 -4.4
v -8 10 8
v 3.2 10 8
v 3.2 10 7.6
v 3.6 10 7.6
v -7.2 10 7.2
v 3.2 10 7.2
v 3.6 10 7.2
v 4 10 7.2
v 3.2 10 6.8
v 3.6 10 6.8
v 4 10 6.8
v 4.4 10 6.8
v 3.6 10 6.4
v 4 10 6.4
v 4.4 10 6.4
v 4.8 10 6.4
v 4 10 6
v 4.4 10 6
v 4.8 10 6
v 5.2 10 6
v 4.4 10 5.6
v 4.8 10 5.6
v 5.2 10 5.6
v 5.6 10 5.6
v 4.8 10 5.2
v 5.2 10 5.2
v 5.6 10 5.2
v 6 10 5.2
v 5.2 10 4.8
v 5.6 10 4.8
v 6 10 4.8
v 6.4 10 4.8
v 5.6 10 4.4
v 6 10 4.4
v 6.4 10 4.4
v 6.8 10 4.4
v 6 10 4
v 6.4 10 4
v 6.8 10 4
v 7.2 10 4
v 6.4 10 3.6
v 6.8 10 3.6
v 7.2 10 3.6
v 7.6 10 3.6
v 6.8 10 3.2
v 7.2 10 3.2
v 7.6 10 3.2
v 8 10 3.2
v -7.2 10 -7.2
v 7.2 10 -7.2
v -8 10 -8
v 8 10 -8
v -5.6 3.2 7.6
v 1.6 3.2 7.6
v -5.6 3.2 7.2
v -5.2 3.2 7.2
v 1.2 3.2 7.2
v 1.6 3.2 7.2
v -5.2 3.2 6.8
v 1.2 3.2 6.8
v 6.8 3.8 -4.1
v 7.2 3.8 -4.1
v 6.8 3.8 -4.3
v 7.2 3.8 -4.3
v 6.8 4.7 -4.1
v 7.4 4.7 -4.1
v 6.8 4.7 -4.3
v 7.4 4.7 -4.3
v -7.2 11.6 7.2
v 3.2 11.6 7.2
v 3.2 11.6 6.8
v 3.6 11.6 6.8
v 3.6 11.6 6.4
v 4 11.6 6.4
v 4 11.6 6
v 4.4 11.6 6
v 4.4 11.6 5.6
v 4.8 11.6 5.6
v 4.8 11.6 5.2
v 5.2 11.6 5.2
v 5.2 11.6 4.8
v 5.6 11.6 4.8
v 5.6 11.6 4.4
v 6 11.6 4.4
v 6 11.6 4
v 6.4 11.6 4
v 6.4 11.6 3.6
v 6.8 11.6 3.6
v 6.8 11.6 3.2
v 7.2 11.6 3.2
v -7.2 11.6 -7.2
v 7.2 11.6 -7.2
v -8 12 8
v 3.2 12 8
v 3.2 12 7.6
v 3.6 12 7.6
v -7.2 12 7.2
v 3.2 12 7.2
v 3.6 12 7.2
v 4 12 7.2
v 3.2 12 6.8
v 3.6 12 6.8
v 4 12 6.8
v 4.4 12 6.8
v 3.6 12 6.4
v 4 12 6.4
v 4.4 12 6.4
v 4.8 12 6.4
v 4 12 6
v 4.4 12 6
v 4.8 12 6
v 5.2 12 6
v 4.4 12 5.6
v 4.8 12 5.6
v 5.2 12 5.6
v 5.6 12 5.6
v 4.8 12 5.2
v 5.2 12 5.2
v 5.6 12 5.2
v 6 12 5.2
v 5.2 12 4.8
v 5.6 12 4.8
v 6 12 4.8
v 6.4 12 4.8
v 5.6 12 4.4
v 6 12 4.4
v 6.4 12 4.4
v 6.8 12 4.4
v 6 12 4
v 6.4 12 4
v 6.8 12 4
v 7.2 12 4
v 6.4 12 3.6
v 6.8 12 3.6
v 7.2 12 3.6
v 7.6 12 3.6
v 6.8 12 3.2
v 7.2 12 3.2
v 7.6 12 3.2
v 8 12 3.2
v -7.2 12 -7.2
v 7.2 12 -7.2
v -8 12 -8
v 8 12 -8

# faces
f 3/1/1 2/1/1 1/1/1
f 4/1/1 2/1/1 3/1/1
f 7/2/1 6/2/1 5/2/1
f 8/2/1 6/2/1 7/2/1
f 11/3/1 10/3/1 9/3/1
f 12/3/1 10/3/1 11/3/1
f 15/3/1 14/3/1 13/3/1
f 16/3/1 14/3/1 15/3/1
f 19/1/1 18/1/1 17/1/1
f 20/1/1 18/1/1 19/1/1
f 23/1/1 22/1/1 21/1/1
f 24/1/1 22/1/1 23/1/1
f 27/1/1 26/1/1 25/1/1
f 28/1/1 26/1/1 27/1/1
f 31/1/1 30/1/1 29/1/1
f 32/1/1 30/1/1 31/1/1
f 35/1/1 34/1/1 33/1/1
f 36/1/1 34/1/1 35/1/1
f 39/1/1 38/1/1 37/1/1
f 40/1/1 38/1/1 39/1/1
f 43/1/1 42/1/1 41/1/1
f 44/1/1 42/1/1 43/1/1
f 47/1/1 46/1/1 45/1/1
f 48/1/1 46/1/1 47/1/1
f 51/1/1 50/1/1 49/1/1
f 52/1/1 50/1/1 51/1/1
f 55/1/1 54/1/1 53/1/1
f 56/1/1 54/1/1 55/1/1
f 59/3/1 58/3/1 57/3/1
f 60/3/1 58/3/1 59/3/1
f 63/1/1 62/1/1 61/1/1
f 64/1/1 62/1/1 63/1/1
f 65/1/2 66/1/2 67/1/2
f 67/1/2 66/1/2 68/1/2
f 69/3/2 70/3/2 71/3/2
f 71/3/2 70/3/2 72/3/2
f 73/3/2 74/3/2 75/3/2
f 75/3/2 74/3/2 76/3/2
f 77/2/2 78/2/2 81/2/2
f 81/2/2 78/2/2 82/2/2
f 79/1/2 80/1/2 83/1/2
f 83/1/2 80/1/2 84/1/2
f 85/2/2 86/2/2 89/2/2
f 89/2/2 86/2/2 90/2/2
f 87/1/2 88/1/2 91/1/2
f 91/1/2 88/1/2 92/1/2
f 93/2/2 94/2/2 97/2/2
f 97/2/2 94/2/2 98/2/2
f 95/1/2 96/1/2 99/1/2
f 99/1/2 96/1/2 100/1/2
f 101/2/2 102/2/2 105/2/2
f 105/2/2 102/2/2 106/2/2
f 103/1/2 104/1/2 107/1/2
f 107/1/2 104/1/2 108/1/2
f 109/2/2 110/2/2 113/2/2
f 113/2/2 110/2/2 114/2/2
f 111/1/2 112/1/2 115/1/2
f 115/1/2 112/1/2 116/1/2
f 117/2/2 118/2/2 121/2/2
f 121/2/2 118/2/2 122/2/2
f 119/1/2 120/1/2 123/1/2
f 123/1/2 120/1/2 124/1/2
f 125/2/2 126/2/2 129/2/2
f 129/2/2 126/2/2 130/2/2
f 127/1/2 128/1/2 131/1/2
f 131/1/2 128/1/2 132/1/2
f 133/2/2 134/2/2 137/2/2
f 137/2/2 134/2/2 138/2/2
f 135/1/2 136/1/2 139/1/2
f 139/1/2 136/1/2 140/1/2
f 141/2/2 142/2/2 145/2/2
f 145/2/2 142/2/2 146/2/2
f 143/1/2 144/1/2 147/1/2
f 147/1/2 144/1/2 148/1/2
f 151/3/2 152/3/2 153/3/2
f 153/3/2 152/3/2 154/3/2
f 154/3/2 152/3/2 155/3/2
f 155/3/2 152/3/2 156/3/2
f 154/3/2 155/3/2 157/3/2
f 156/3/2 152/3/2 158/3/2
f 154/3/2 157/3/2 159/3/2
f 157/3/2 158/3/2 159/3/2
f 158/3/2 152/3/2 160/3/2
f 159/3/2 158/3/2 160/3/2
f 154/3/2 159/3/2 161/3/2
f 160/3/2 152/3/2 162/3/2
f 151/3/2 153/3/2 163/3/2
f 153/4/2 154/4/2 163/4/2
f 161/3/2 162/3/2 164/3/2
f 163/4/2 154/4/2 164/4/2
f 154/3/2 161/3/2 164/3/2
f 151/3/2 163/3/2 165/3/2
f 163/3/2 164/3/2 165/3/2
f 164/3/2 162/3/2 166/3/2
f 165/3/2 164/3/2 166/3/2
f 151/3/2 165/3/2 167/3/2
f 165/4/2 166/4/2 167/4/2
f 166/3/2 162/3/2 168/3/2
f 167/4/2 166/4/2 168/4/2
f 151/3/2 167/3/2 169/3/2
f 167/3/2 168/3/2 169/3/2
f 168/3/2 162/3/2 170/3/2
f 169/3/2 168/3/2 170/3/2
f 162/3/2 152/3/2 170/3/2
f 149/2/2 150/2/2 173/2/2
f 173/2/2 150/2/2 174/2/2
f 171/1/2 172/1/2 175/1/2
f 175/1/2 172/1/2 176/1/2
f 177/2/2 178/2/2 181/2/2
f 179/2/2 180/2/2 182/2/2
f 177/2/2 181/2/2 185/2/2
f 181/2/2 182/2/2 185/2/2
f 182/2/2 180/2/2 186/2/2
f 185/2/2 182/2/2 186/2/2
f 183/1/2 184/1/2 187/1/2
f 187/1/2 184/1/2 188/1/2
f 189/3/2 190/3/2 191/3/2
f 191/3/2 190/3/2 192/3/2
f 193/1/2 194/1/2 195/1/2
f 195/1/2 194/1/2 196/1/2
f 197/1/2 198/1/2 199/1/2
f 199/1/2 198/1/2 200/1/2
f 203/1/3 202/1/3 201/1/3
f 204/1/3 202/1/3 203/1/3
f 207/3/3 206/3/3 205/3/3
f 208/3/3 206/3/3 207/3/3
f 211/1/3 210/1/3 209/1/3
f 212/1/3 210/1/3 211/1/3
f 215/2/3 214/2/3 213/2/3
f 216/2/3 214/2/3 215/2/3
f 217/2/3 214/2/3 216/2/3
f 218/3/3 217/3/3 216/3/3
f 219/3/3 217/3/3 218/3/3
f 221/3/3 217/3/3 219/3/3
f 222/2/3 215/2/3 213/2/3
f 223/3/3 221/3/3 220/3/3
f 224/2/3 214/2/3 217/2/3
f 224/3/3 217/3/3 221/3/3
f 224/3/3 221/3/3 223/3/3
f 225/2/3 222/2/3 213/2/3
f 225/2/3 223/2/3 222/2/3
f 225/2/3 224/2/3 223/2/3
f 226/2/3 214/2/3 224/2/3
f 226/2/3 224/2/3 225/2/3
f 229/1/3 228/1/3 227/1/3
f 230/1/3 228/1/3 229/1/3
f 233/4/3 232/4/3 231/4/3
f 234/4/3 232/4/3 233/4/3
f 237/2/3 236/2/3 235/2/3
f 238/2/3 236/2/3 237/2/3
f 241/1/3 240/1/3 239/1/3
f 242/1/3 240/1/3 241/1/3
f 245/2/3 244/2/3 243/2/3
f 246/2/3 244/2/3 245/2/3
f 249/1/3 248/1/3 247/1/3
f 250/1/3 248/1/3 249/1/3
f 253/2/3 252/2/3 251/2/3
f 254/2/3 252/2/3 253/2/3
f 257/1/3 256/1/3 255/1/3
f 258/1/3 256/1/3 257/1/3
f 261/2/3 260/2/3 259/2/3
f 262/2/3 260/2/3 261/2/3
f 265/1/3 264/1/3 263/1/3
f 266/1/3 264/1/3 265/1/3
f 269/2/3 268/2/3 267/2/3
f 270/2/3 268/2/3 269/2/3
f 273/1/3 272/1/3 271/1/3
f 274/1/3 272/1/3 273/1/3
f 277/2/3 276/2/3 275/2/3
f 278/2/3 276/2/3 277/2/3
f 281/1/3 280/1/3 279/1/3
f 282/1/3 280/1/3 281/1/3
f 285/2/3 284/2/3 283/2/3
f 286/2/3 284/2/3 285/2/3
f 289/1/3 288/1/3 287/1/3
f 290/1/3 288/1/3 289/1/3
f 293/2/3 292/2/3 291/2/3
f 294/2/3 292/2/3 293/2/3
f 297/1/3 296/1/3 295/1/3
f 298/1/3 296/1/3 297/1/3
f 301/2/3 300/2/3 299/2/3
f 302/2/3 300/2/3 301/2/3
f 305/1/3 304/1/3 303/1/3
f 306/1/3 304/1/3 305/1/3
f 309/2/3 308/2/3 307/2/3
f 310/2/3 308/2/3 309/2/3
f 313/1/3 312/1/3 311/1/3
f 314/1/3 312/1/3 313/1/3
f 319/3/3 316/3/3 315/3/3
f 320/3/3 318/3/3 317/3/3
f 321/3/3 319/3/3 315/3/3
f 321/3/3 320/3/3 319/3/3
f 322/3/3 318/3/3 320/3/3
f 322/3/3 320/3/3 321/3/3
f 325/2/3 324/2/3 323/2/3
f 326/2/3 324/2/3 325/2/3
f 329/1/3 328/1/3 327/1/3
f 330/1/3 328/1/3 329/1/3
f 331/1/4 332/1/4 333/1/4
f 333/1/4 332/1/4 334/1/4
f 335/1/4 336/1/4 337/1/4
f 337/1/4 336/1/4 338/1/4
f 339/1/4 340/1/4 341/1/4
f 341/1/4 340/1/4 342/1/4
f 343/1/4 344/1/4 345/1/4
f 345/1/4 344/1/4 346/1/4
f 347/1/4 348/1/4 349/1/4
f 349/1/4 348/1/4 350/1/4
f 351/1/4 352/1/4 353/1/4
f 353/1/4 352/1/4 354/1/4
f 355/1/4 356/1/4 357/1/4
f 357/1/4 356/1/4 358/1/4
f 359/1/4 360/1/4 361/1/4
f 361/1/4 360/1/4 362/1/4
f 363/1/4 364/1/4 365/1/4
f 365/1/4 364/1/4 366/1/4
f 367/1/4 368/1/4 369/1/4
f 369/1/4 368/1/4 370/1/4
f 371/1/4 372/1/4 373/1/4
f 373/1/4 372/1/4 374/1/4
f 375/2/4 376/2/4 377/2/4
f 377/2/4 376/2/4 378/2/4
f 379/3/4 380/3/4 383/3/4
f 381/3/4 382/3/4 384/3/4
f 379/3/4 383/3/4 385/3/4
f 383/3/4 384/3/4 385/3/4
f 384/3/4 382/3/4 386/3/4
f 385/3/4 384/3/4 386/3/4
f 387/2/4 388/2/4 389/2/4
f 389/2/4 388/2/4 390/2/4
f 391/1/4 392/1/4 393/1/4
f 393/1/4 392/1/4 394/1/4
f 397/2/5 396/2/5 395/2/5
f 399/2/5 398/2/5 397/2/5
f 401/2/5 400/2/5 399/2/5
f 403/2/5 402/2/5 401/2/5
f 405/2/5 404/2/5 403/2/5
f 407/2/5 406/2/5 405/2/5
f 409/2/5 408/2/5 407/2/5
f 411/2/5 410/2/5 409/2/5
f 413/2/5 412/2/5 411/2/5
f 415/2/5 414/2/5 413/2/5
f 417/2/5 413/2/5 411/2/5
f 417/2/5 416/2/5 415/2/5
f 417/2/5 415/2/5 413/2/5
f 418/2/5 416/2/5 417/2/5
f 419/2/5 416/2/5 418/2/5
f 420/2/5 417/2/5 411/2/5
f 420/3/5 418/3/5 417/3/5
f 421/3/5 418/3/5 420/3/5
f 423/2/5 397/2/5 395/2/5
f 423/2/5 422/2/5 421/2/5
f 423/2/5 421/2/5 420/2/5
f 423/2/5 420/2/5 411/2/5
f 423/2/5 399/2/5 397/2/5
f 423/2/5 411/2/5 409/2/5
f 423/2/5 409/2/5 407/2/5
f 423/2/5 407/2/5 405/2/5
f 423/2/5 405/2/5 403/2/5
f 423/2/5 403/2/5 401/2/5
f 423/2/5 401/2/5 399/2/5
f 424/2/5 422/2/5 423/2/5
f 427/3/5 426/3/5 425/3/5
f 428/3/5 426/3/5 427/3/5
f 431/3/5 430/3/5 429/3/5
f 432/3/5 430/3/5 431/3/5
f 435/3/5 434/3/5 433/3/5
f 436/3/5 434/3/5 435/3/5
f 439/3/5 438/3/5 437/3/5
f 440/3/5 438/3/5 439/3/5
f 443/2/5 442/2/5 441/2/5
f 444/2/5 442/2/5 443/2/5
f 447/1/5 446/1/5 445/1/5
f 449/1/5 447/1/5 445/1/5
f 449/1/5 448/1/5 447/1/5
f 450/1/5 448/1/5 449/1/5
f 451/1/5 448/1/5 450/1/5
f 453/1/5 452/1/5 451/1/5
f 453/1/5 451/1/5 450/1/5
f 454/1/5 452/1/5 453/1/5
f 455/1/5 452/1/5 454/1/5
f 457/1/5 456/1/5 455/1/5
f 457/1/5 455/1/5 454/1/5
f 458/1/5 456/1/5 457/1/5
f 459/1/5 456/1/5 458/1/5
f 461/1/5 460/1/5 459/1/5
f 461/1/5 459/1/5 458/1/5
f 462/1/5 460/1/5 461/1/5
f 463/1/5 460/1/5 462/1/5
f 465/1/5 464/1/5 463/1/5
f 465/1/5 463/1/5 462/1/5
f 466/1/5 464/1/5 465/1/5
f 467/1/5 464/1/5 466/1/5
f 469/1/5 468/1/5 467/1/5
f 469/1/5 467/1/5 466/1/5
f 470/1/5 468/1/5 469/1/5
f 471/1/5 468/1/5 470/1/5
f 473/1/5 472/1/5 471/1/5
f 473/1/5 471/1/5 470/1/5
f 474/1/5 472/1/5 473/1/5
f 475/1/5 472/1/5 474/1/5
f 477/1/5 476/1/5 475/1/5
f 477/1/5 475/1/5 474/1/5
f 478/1/5 476/1/5 477/1/5
f 479/1/5 476/1/5 478/1/5
f 481/1/5 480/1/5 479/1/5
f 481/1/5 479/1/5 478/1/5
f 482/1/5 480/1/5 481/1/5
f 483/1/5 480/1/5 482/1/5
f 485/1/5 484/1/5 483/1/5
f 485/1/5 483/1/5 482/1/5
f 486/1/5 484/1/5 485/1/5
f 487/1/5 484/1/5 486/1/5
f 489/1/5 488/1/5 487/1/5
f 489/1/5 487/1/5 486/1/5
f 490/1/5 488/1/5 489/1/5
f 491/1/5 488/1/5 490/1/5
f 493/1/5 449/1/5 445/1/5
f 494/1/5 492/1/5 491/1/5
f 494/1/5 491/1/5 490/1/5
f 495/1/5 493/1/5 445/1/5
f 495/1/5 494/1/5 493/1/5
f 496/1/5 492/1/5 494/1/5
f 496/1/5 494/1/5 495/1/5
f 497/3/6 498/3/6 499/3/6
f 499/3/6 498/3/6 500/3/6
f 500/3/6 498/3/6 501/3/6
f 501/3/6 498/3/6 502/3/6
f 500/3/6 501/3/6 503/3/6
f 503/3/6 501/3/6 504/3/6
f 505/3/6 506/3/6 507/3/6
f 507/3/6 506/3/6 508/3/6
f 509/3/6 510/3/6 511/3/6
f 511/3/6 510/3/6 512/3/6
f 513/2/6 514/2/6 515/2/6
f 515/2/6 516/2/6 517/2/6
f 517/2/6 518/2/6 519/2/6
f 519/2/6 520/2/6 521/2/6
f 521/2/6 522/2/6 523/2/6
f 523/2/6 524/2/6 525/2/6
f 525/2/6 526/2/6 527/2/6
f 527/2/6 528/2/6 529/2/6
f 529/2/6 530/2/6 531/2/6
f 531/2/6 532/2/6 533/2/6
f 513/2/6 515/2/6 535/2/6
f 533/2/6 534/2/6 535/2/6
f 531/2/6 533/2/6 535/2/6
f 529/2/6 531/2/6 535/2/6
f 527/2/6 529/2/6 535/2/6
f 525/2/6 527/2/6 535/2/6
f 523/2/6 525/2/6 535/2/6
f 521/2/6 523/2/6 535/2/6
f 519/2/6 521/2/6 535/2/6
f 517/2/6 519/2/6 535/2/6
f 515/2/6 517/2/6 535/2/6
f 535/2/6 534/2/6 536/2/6
f 537/1/6 538/1/6 539/1/6
f 537/1/6 539/1/6 541/1/6
f 539/1/6 540/1/6 541/1/6
f 541/1/6 540/1/6 542/1/6
f 542/1/6 540/1/6 543/1/6
f 543/1/6 544/1/6 545/1/6
f 542/1/6 543/1/6 545/1/6
f 545/1/6 544/1/6 546/1/6
f 546/1/6 544/1/6 547/1/6
f 547/1/6 548/1/6 549/1/6
f 546/1/6 547/1/6 549/1/6
f 549/1/6 548/1/6 550/1/6
f 550/1/6 548/1/6 551/1/6
f 551/1/6 552/1/6 553/1/6
f 550/1/6 551/1/6 553/1/6
f 553/1/6 552/1/6 554/1/6
f 554/1/6 552/1/6 555/1/6
f 555/1/6 556/1/6 557/1/6
f 554/1/6 555/1/6 557/1/6
f 557/1/6 556/1/6 558/1/6
f 558/1/6 556/1/6 559/1/6
f 559/1/6 560/1/6 561/1/6
f 558/1/6 559/1/6 561/1/6
f 561/1/6 560/1/6 562/1/6
f 562/1/6 560/1/6 563/1/6
f 563/1/6 564/1/6 565/1/6
f 562/1/6 563/1/6 565/1/6
f 565/1/6 564/1/6 566/1/6
f 566/1/6 564/1/6 567/1/6
f 567/1/6 568/1/6 569/1/6
f 566/1/6 567/1/6 569/1/6
f 569/1/6 568/1/6 570/1/6
f 570/1/6 568/1/6 571/1/6
f 571/1/6 572/1/6 573/1/6
f 570/1/6 571/1/6 573/1/6
f 573/1/6 572/1/6 574/1/6
f 574/1/6 572/1/6 575/1/6
f 575/1/6 576/1/6 577/1/6
f 574/1/6 575/1/6 577/1/6
f 577/1/6 576/1/6 578/1/6
f 578/1/6 576/1/6 579/1/6
f 579/1/6 580/1/6 581/1/6
f 578/1/6 579/1/6 581/1/6
f 581/1/6 580/1/6 582/1/6
f 582/1/6 580/1/6 583/1/6
f 537/1/6 541/1/6 585/1/6
f 583/1/6 584/1/6 586/1/6
f 582/1/6 583/1/6 586/1/6
f 537/1/6 585/1/6 587/1/6
f 585/1/6 586/1/6 587/1/6
f 586/1/6 584/1/6 588/1/6
f 587/1/6 586/1/6 588/1/6
